<?xml version="1.0" encoding="UTF-8"?>
<svg id="Layer_1" xmlns="http://www.w3.org/2000/svg" version="1.1" viewBox="0 0 439.5 141.7">
  <!-- Generator: Adobe Illustrator 29.3.0, SVG Export Plug-In . SVG Version: 2.1.0 Build 146)  -->
  <defs>
    <style>
      .st0 {
        fill: #14114a;
      }

      .st1 {
        fill: #be974a;
      }

      .st2, .st3 {
        fill: #1eaae7;
      }

      .st3 {
        font-family: Gotham-Bold, Gotham;
        font-size: 24.1px;
        font-weight: 700;
      }

      .st4 {
        fill: #fff;
      }
    </style>
  </defs>
  <g>
    <g>
      <path class="st0" d="M70.4,45s0,0,0,0h.1c0,.1,0,0,0,0Z"/>
      <path class="st0" d="M65.6,43.1c0,1,.8,1.8,1.8,1.8s.6,0,.9-.3c0,0,0,0,0,0,0-.1.2-.2.3-.2.3-.3.5-.8.5-1.3,0-1-.8-1.8-1.8-1.8s-1.8.8-1.8,1.8Z"/>
      <polygon class="st0" points="85.2 73.6 85.2 73.7 85.3 73.8 85.2 73.6"/>
      <path class="st0" d="M91.7,86.1l-.8-1.6s0,0,0,.1c0,.6.3,1.2.9,1.5Z"/>
      <path class="st0" d="M92.6,88.1c-2,0-3.6-1.6-3.6-3.6s.3-1.6.7-2.2l-.4-.7-4.2-4.8v6.8c1.4.5,2.4,1.8,2.4,3.4s-1.6,3.6-3.6,3.6-3.6-1.6-3.6-3.6,1.1-3,2.6-3.4v-9.2l-1.9-2.2h-7.2c-.6,0-1.1-.5-1.1-1.1s.5-1.1,1.1-1.1h8.2l.9,1.1v-1.8l-1.5-2.8-4.4-4.4h-9.4c-.5,1.4-1.8,2.4-3.4,2.4s-1-.1-1.5-.3l13.9,27.2h17.7l-1.7-3.4s0,0-.1,0ZM70.1,73c-.9,0-1.7-.8-1.7-1.7s.8-1.7,1.7-1.7,1.7.8,1.7,1.7-.8,1.7-1.7,1.7Z"/>
      <circle class="st0" cx="84" cy="87.1" r="1.8"/>
      <circle class="st0" cx="64.4" cy="61" r="1.8"/>
      <path class="st0" d="M47.4,34.1l13.4,26.3c.3-1.6,1.8-2.9,3.5-2.9s3,1.1,3.4,2.6h10.3l.3.3-4.8-9.3-4.8-4.6c-.4.2-.9.3-1.3.3-2,0-3.6-1.6-3.6-3.6s1.6-3.6,3.6-3.6.1,0,.2,0L47.2,0,.4,91.5h17.7l40.3-20.2-32.4,2.9,21.4-40.2Z"/>
    </g>
    <g>
      <path class="st4" d="M70.4,45s0,0,0,0h.1c0,.1,0,0,0,0Z"/>
      <path class="st4" d="M65.6,43.1c0,1,.8,1.8,1.8,1.8s.6,0,.9-.3c0,0,0,0,0,0,0-.1.2-.2.3-.2.3-.3.5-.8.5-1.3,0-1-.8-1.8-1.8-1.8s-1.8.8-1.8,1.8Z"/>
      <polygon class="st4" points="85.2 73.6 85.2 73.7 85.3 73.8 85.2 73.6"/>
      <path class="st4" d="M91.7,86.1l-.8-1.6s0,0,0,.1c0,.6.3,1.2.9,1.5Z"/>
      <path class="st4" d="M92.6,88.1c-2,0-3.6-1.6-3.6-3.6s.3-1.6.7-2.2l-.4-.7-4.2-4.8v6.8c1.4.5,2.4,1.8,2.4,3.4s-1.6,3.6-3.6,3.6-3.6-1.6-3.6-3.6,1.1-3,2.6-3.4v-9.2l-1.9-2.2h-7.2c-.6,0-1.1-.5-1.1-1.1s.5-1.1,1.1-1.1h8.2l.9,1.1v-1.8l-1.5-2.8-4.4-4.4h-9.4c-.5,1.4-1.8,2.4-3.4,2.4s-1-.1-1.5-.3l13.9,27.2h17.7l-1.7-3.4s0,0-.1,0ZM70.1,73c-.9,0-1.7-.8-1.7-1.7s.8-1.7,1.7-1.7,1.7.8,1.7,1.7-.8,1.7-1.7,1.7Z"/>
      <circle class="st4" cx="84" cy="87.1" r="1.8"/>
      <circle class="st4" cx="64.4" cy="61" r="1.8"/>
      <path class="st4" d="M47.4,34.1l13.4,26.3c.3-1.6,1.8-2.9,3.5-2.9s3,1.1,3.4,2.6h10.3l.3.3-4.8-9.3-4.8-4.6c-.4.2-.9.3-1.3.3-2,0-3.6-1.6-3.6-3.6s1.6-3.6,3.6-3.6.1,0,.2,0L47.2,0,.4,91.5h17.7l40.3-20.2-32.4,2.9,21.4-40.2Z"/>
    </g>
  </g>
  <g>
    <g>
      <path class="st1" d="M76.4,36.4l-.3,9.4,17.3,15.6-.3,10.4c-.5.3-.9.9-.9,1.6,0,1.1.8,1.9,1.9,2,1.1,0,1.9-.8,2-1.9,0-.8-.5-1.6-1.2-1.8l.3-11-17.3-15.6.2-8.6c1-.3,1.7-1.3,1.7-2.4,0-1.4-1.1-2.6-2.5-2.6-1.4,0-2.6,1.1-2.6,2.5,0,1.1.7,2.1,1.7,2.5ZM77.3,32.8c.7,0,1.3.6,1.2,1.3,0,.6-.5,1.1-1.1,1.2,0,0-.1,0-.2,0,0,0-.1,0-.2,0-.6-.1-1.1-.6-1.1-1.3,0-.7.6-1.3,1.3-1.2Z"/>
      <circle class="st1" cx="98.5" cy="49.7" r="1.5"/>
      <path class="st1" d="M70.4,45c.3-.6.6-1.2.6-1.9,0-1.9-1.5-3.5-3.4-3.6l2.8,5.5Z"/>
      <polygon class="st1" points="81.6 66.6 83.1 68.1 83.1 69.4 85.2 73.6 85.2 67.2 78.4 60.3 81.6 66.6"/>
      <path class="st1" d="M99.4,78s0,0,0,0v-20l-4.4-3.9v-8.6c.7-.3,1.2-1,1.2-1.8s-.9-1.9-1.9-1.9-1.9.9-1.9,1.9.4,1.3,1,1.7v7.1l-2.8-2.5v-9s0,0,0,0c.9-.4,1.6-1.3,1.6-2.4s-1.1-2.6-2.6-2.6-2.6,1.1-2.6,2.6.8,2.1,1.8,2.5v7.4l-6.2-5.6c-.4-.3-.9-.3-1.2,0-.3.4-.3.9,0,1.2l16.2,14.6v19.3s0,0,0,0c-1,.4-1.7,1.3-1.7,2.4s1.1,2.6,2.6,2.6,2.6-1.1,2.6-2.6-.7-2.1-1.7-2.4ZM89.6,39.8c-.7,0-1.3-.6-1.3-1.3s.6-1.3,1.3-1.3,1.3.6,1.3,1.3-.6,1.3-1.3,1.3ZM98.5,81.7c-.7,0-1.3-.6-1.3-1.3s.6-1.3,1.3-1.3,1.3.6,1.3,1.3-.6,1.3-1.3,1.3Z"/>
      <path class="st1" d="M92.6,81c-.3,0-.6,0-.9.1l-1.3-1.5v-15.4l-19.9-19,3,5.8,14.7,14.1v12.1l-2.9-3.3,4.1,7.8.5.6s0,.1-.1.2l1.1,2.1c0-.9.8-1.7,1.8-1.7s1.8.8,1.8,1.8-.8,1.8-1.8,1.8-.7-.1-.9-.3l1.1,2.1c1.9,0,3.5-1.6,3.5-3.6s-1.6-3.6-3.6-3.6Z"/>
    </g>
    <g>
      <path class="st2" d="M76.4,36.4l-.3,9.4,17.3,15.6-.3,10.4c-.5.3-.9.9-.9,1.6,0,1.1.8,1.9,1.9,2,1.1,0,1.9-.8,2-1.9,0-.8-.5-1.6-1.2-1.8l.3-11-17.3-15.6.2-8.6c1-.3,1.7-1.3,1.7-2.4,0-1.4-1.1-2.6-2.5-2.6-1.4,0-2.6,1.1-2.6,2.5,0,1.1.7,2.1,1.7,2.5ZM77.3,32.8c.7,0,1.3.6,1.2,1.3,0,.6-.5,1.1-1.1,1.2,0,0-.1,0-.2,0,0,0-.1,0-.2,0-.6-.1-1.1-.6-1.1-1.3,0-.7.6-1.3,1.3-1.2Z"/>
      <circle class="st2" cx="98.5" cy="49.7" r="1.5"/>
      <path class="st2" d="M70.4,45c.3-.6.6-1.2.6-1.9,0-1.9-1.5-3.5-3.4-3.6l2.8,5.5Z"/>
      <polygon class="st2" points="81.6 66.6 83.1 68.1 83.1 69.4 85.2 73.6 85.2 67.2 78.4 60.3 81.6 66.6"/>
      <path class="st2" d="M99.4,78s0,0,0,0v-20l-4.4-3.9v-8.6c.7-.3,1.2-1,1.2-1.8s-.9-1.9-1.9-1.9-1.9.9-1.9,1.9.4,1.3,1,1.7v7.1l-2.8-2.5v-9s0,0,0,0c.9-.4,1.6-1.3,1.6-2.4s-1.1-2.6-2.6-2.6-2.6,1.1-2.6,2.6.8,2.1,1.8,2.5v7.4l-6.2-5.6c-.4-.3-.9-.3-1.2,0-.3.4-.3.9,0,1.2l16.2,14.6v19.3s0,0,0,0c-1,.4-1.7,1.3-1.7,2.4s1.1,2.6,2.6,2.6,2.6-1.1,2.6-2.6-.7-2.1-1.7-2.4ZM89.6,39.8c-.7,0-1.3-.6-1.3-1.3s.6-1.3,1.3-1.3,1.3.6,1.3,1.3-.6,1.3-1.3,1.3ZM98.5,81.7c-.7,0-1.3-.6-1.3-1.3s.6-1.3,1.3-1.3,1.3.6,1.3,1.3-.6,1.3-1.3,1.3Z"/>
      <path class="st2" d="M92.6,81c-.3,0-.6,0-.9.1l-1.3-1.5v-15.4l-19.9-19,3,5.8,14.7,14.1v12.1l-2.9-3.3,4.1,7.8.5.6s0,.1-.1.2l1.1,2.1c0-.9.8-1.7,1.8-1.7s1.8.8,1.8,1.8-.8,1.8-1.8,1.8-.7-.1-.9-.3l1.1,2.1c1.9,0,3.5-1.6,3.5-3.6s-1.6-3.6-3.6-3.6Z"/>
    </g>
  </g>
  <g>
    <path d="M187.2,15.6h-50.7v24.6h45v14.1h-45v36.3h-15.5V1.4h66.3v14.1Z"/>
    <path class="st4" d="M187.2,15.6h-50.7v24.6h45v14.1h-45v36.3h-15.5V1.4h66.3v14.1Z"/>
  </g>
  <g>
    <path class="st4" d="M11,111.7c-.3.8-.8,1.4-1.4,2-.6.6-1.3,1-2.1,1.3-.8.3-1.7.5-2.7.5H0v-12.5h4.9c1,0,1.9.2,2.7.5.8.3,1.5.8,2.1,1.3.6.6,1,1.2,1.4,2s.5,1.6.5,2.5h0c0,.9-.2,1.7-.5,2.5ZM8.6,109.2c0-.5,0-1.1-.3-1.5-.2-.5-.4-.9-.8-1.2-.3-.3-.7-.6-1.2-.8-.5-.2-1-.3-1.5-.3h-2.1v7.5h2.1c.6,0,1.1,0,1.5-.3s.9-.4,1.2-.8c.3-.3.6-.7.8-1.2.2-.5.3-1,.3-1.5h0Z"/>
    <path class="st4" d="M20.5,115.4v-12.5h2.7v12.5h-2.7Z"/>
    <path class="st4" d="M41.8,115.1c-.9.4-1.9.6-3,.6s-1.9-.2-2.7-.5c-.8-.3-1.5-.8-2.1-1.3-.6-.6-1-1.2-1.3-2-.3-.8-.5-1.6-.5-2.6h0c0-.9.2-1.8.5-2.5.3-.8.8-1.5,1.4-2.1.6-.6,1.3-1.1,2.1-1.4.8-.3,1.7-.5,2.6-.5s1.1,0,1.5.1c.5,0,.9.2,1.3.3.4.1.8.3,1.1.5.3.2.7.5,1,.7l-1.7,2.1c-.2-.2-.5-.4-.7-.5-.2-.2-.5-.3-.7-.4-.3-.1-.5-.2-.8-.3-.3,0-.6,0-1,0s-1,.1-1.4.3c-.4.2-.8.5-1.1.8-.3.4-.6.8-.8,1.2-.2.5-.3,1-.3,1.5h0c0,.6,0,1.1.3,1.6.2.5.4.9.8,1.3.3.4.7.6,1.2.8.5.2,1,.3,1.5.3,1,0,1.9-.3,2.6-.8v-1.8h-2.8v-2.4h5.4v5.4c-.6.5-1.4,1-2.3,1.4Z"/>
    <path class="st4" d="M53.3,115.4v-12.5h2.7v12.5h-2.7Z"/>
    <path class="st4" d="M71.2,105.5v10h-2.7v-10h-3.8v-2.5h10.4v2.5h-3.8Z"/>
    <path class="st4" d="M92.9,115.4l-1.1-2.8h-5.3l-1.1,2.8h-2.8l5.4-12.6h2.5l5.4,12.6h-2.9ZM89.1,106.2l-1.7,4.1h3.3l-1.7-4.1Z"/>
    <path class="st4" d="M104.1,115.4v-12.5h2.7v10h6.2v2.5h-9Z"/>
    <path class="st4" d="M133.4,115.4v-12.5h2.7v12.5h-2.7Z"/>
    <path class="st4" d="M154.5,115.4l-6.1-7.9v7.9h-2.7v-12.5h2.5l5.9,7.7v-7.7h2.7v12.5h-2.3Z"/>
    <path class="st4" d="M168.9,105.4v2.7h6v2.5h-6v4.8h-2.7v-12.5h9.5v2.5h-6.8Z"/>
    <path class="st4" d="M191.9,115.4l-2.7-4h-2.2v4h-2.7v-12.5h5.7c1.5,0,2.6.4,3.5,1.1.8.7,1.2,1.7,1.2,3h0c0,1-.2,1.9-.7,2.5-.5.6-1.1,1.1-1.9,1.4l3.1,4.5h-3.2ZM192,107.2c0-.6-.2-1-.6-1.3-.4-.3-.9-.4-1.6-.4h-2.7v3.6h2.8c.7,0,1.2-.2,1.6-.5.4-.3.5-.7.5-1.3h0Z"/>
    <path class="st4" d="M212.9,115.4l-1.1-2.8h-5.3l-1.1,2.8h-2.8l5.4-12.6h2.5l5.4,12.6h-2.9ZM209.1,106.2l-1.7,4.1h3.3l-1.7-4.1Z"/>
    <path class="st4" d="M232.8,113.4c-.2.5-.5.9-.9,1.2s-.9.6-1.4.7c-.6.2-1.2.3-1.9.3s-1.9-.2-2.8-.5c-.9-.3-1.7-.8-2.5-1.5l1.6-1.9c.6.5,1.2.8,1.8,1.1.6.3,1.3.4,2,.4s1-.1,1.3-.3c.3-.2.5-.5.5-.9h0c0-.2,0-.4,0-.5,0-.1-.2-.3-.4-.4-.2-.1-.4-.2-.8-.4-.3-.1-.8-.2-1.3-.4-.6-.2-1.2-.3-1.7-.5s-.9-.4-1.3-.7c-.4-.3-.6-.6-.8-1s-.3-.9-.3-1.6h0c0-.6.1-1.1.3-1.6.2-.5.5-.9.9-1.2.4-.3.8-.6,1.4-.8s1.1-.3,1.8-.3c.9,0,1.8.1,2.5.4.8.3,1.5.7,2.1,1.2l-1.4,2.1c-.6-.4-1.1-.7-1.6-.9-.5-.2-1.1-.3-1.6-.3s-.9.1-1.2.3c-.3.2-.4.5-.4.8h0c0,.2,0,.4.1.6,0,.1.2.3.4.4.2.1.5.2.8.3s.8.2,1.3.4c.6.2,1.2.4,1.7.6.5.2.9.5,1.3.7.3.3.6.6.8,1,.2.4.3.9.3,1.4h0c0,.7-.1,1.2-.3,1.7Z"/>
    <path class="st4" d="M247.6,105.5v10h-2.7v-10h-3.8v-2.5h10.4v2.5h-3.8Z"/>
    <path class="st4" d="M267.5,115.4l-2.7-4h-2.2v4h-2.7v-12.5h5.7c1.5,0,2.6.4,3.5,1.1s1.2,1.7,1.2,3h0c0,1-.2,1.9-.7,2.5-.5.6-1.1,1.1-1.9,1.4l3.1,4.5h-3.2ZM267.6,107.2c0-.6-.2-1-.6-1.3-.4-.3-.9-.4-1.6-.4h-2.7v3.6h2.8c.7,0,1.2-.2,1.6-.5.4-.3.5-.7.5-1.3h0Z"/>
    <path class="st4" d="M289.6,112.5c-.3.7-.6,1.3-1.1,1.8-.5.5-1.1.8-1.7,1.1-.7.2-1.4.3-2.3.3-1.7,0-3-.5-4-1.4s-1.4-2.3-1.4-4.2v-7.1h2.7v7.1c0,1,.2,1.8.7,2.3.5.5,1.1.8,2,.8s1.5-.3,2-.7c.5-.5.7-1.2.7-2.2v-7.2h2.7v7.1c0,1-.1,1.8-.4,2.5Z"/>
    <path class="st4" d="M309.1,114.3c-.3.3-.7.5-1.1.7-.4.2-.9.3-1.3.4s-1,.2-1.6.2c-.9,0-1.8-.2-2.6-.5-.8-.3-1.5-.8-2-1.4s-1-1.3-1.3-2c-.3-.8-.5-1.6-.5-2.5h0c0-.9.2-1.8.5-2.5.3-.8.8-1.5,1.3-2.1.6-.6,1.3-1.1,2.1-1.4.8-.3,1.7-.5,2.6-.5s1.1,0,1.6.1c.5,0,.9.2,1.3.4.4.2.8.4,1.1.6.3.2.6.5.9.8l-1.7,2c-.5-.4-1-.8-1.5-1s-1.1-.4-1.7-.4-1,.1-1.5.3c-.4.2-.8.5-1.2.8-.3.4-.6.8-.7,1.2-.2.5-.3,1-.3,1.5h0c0,.6,0,1.1.3,1.6.2.5.4.9.7,1.2.3.4.7.6,1.1.8.4.2.9.3,1.5.3s1.3-.1,1.8-.4c.5-.3,1-.6,1.5-1.1l1.7,1.8c-.3.3-.7.7-1,.9Z"/>
    <path class="st4" d="M324.4,105.5v10h-2.7v-10h-3.8v-2.5h10.4v2.5h-3.8Z"/>
    <path class="st4" d="M347,112.5c-.3.7-.6,1.3-1.1,1.8-.5.5-1.1.8-1.7,1.1-.7.2-1.4.3-2.3.3-1.7,0-3-.5-4-1.4-1-.9-1.4-2.3-1.4-4.2v-7.1h2.7v7.1c0,1,.2,1.8.7,2.3.5.5,1.1.8,2,.8s1.5-.3,2-.7c.5-.5.7-1.2.7-2.2v-7.2h2.7v7.1c0,1-.1,1.8-.4,2.5Z"/>
    <path class="st4" d="M364.2,115.4l-2.7-4h-2.2v4h-2.7v-12.5h5.7c1.5,0,2.6.4,3.5,1.1s1.2,1.7,1.2,3h0c0,1-.2,1.9-.7,2.5-.5.6-1.1,1.1-1.9,1.4l3.1,4.5h-3.2ZM364.3,107.2c0-.6-.2-1-.6-1.3-.4-.3-.9-.4-1.6-.4h-2.7v3.6h2.8c.7,0,1.2-.2,1.6-.5.4-.3.5-.7.5-1.3h0Z"/>
    <path class="st4" d="M375.9,115.4v-12.5h9.4v2.4h-6.7v2.5h5.9v2.4h-5.9v2.6h6.8v2.4h-9.5Z"/>
  </g>
  <text class="st3" transform="translate(393.5 80.4)"><tspan x="0" y="0">ADI</tspan></text>
  <polygon class="st2" points="229.4 71.7 269.1 91.5 286.4 91.5 240.5 1.6 194 91.5 211.4 91.5 240.2 35 261.3 74.5 229.4 71.7"/>
  <g>
    <polygon class="st2" points="226.5 133.7 228.8 133.7 227.7 130.9 226.5 133.7"/>
    <polygon class="st2" points="270.2 133.7 272.4 133.7 271.3 130.9 270.2 133.7"/>
    <path class="st2" d="M318.3,130.4h-1.9v2.4h1.9c.5,0,.8-.1,1.1-.3.2-.2.4-.5.4-.9h0c0-.4-.1-.7-.4-.9s-.6-.3-1.1-.3Z"/>
    <path class="st2" d="M167.3,132c.2-.1.4-.4.4-.7h0c0-.3-.1-.5-.3-.7-.2-.1-.5-.2-.9-.2h-1.8v1.8h1.7c.4,0,.7,0,1-.2Z"/>
    <polygon class="st2" points="58.8 133.7 61 133.7 59.9 130.9 58.8 133.7"/>
    <polygon class="st2" points="15.1 133.7 17.3 133.7 16.2 130.9 15.1 133.7"/>
    <polygon class="st2" points="151.5 133.7 153.8 133.7 152.6 130.9 151.5 133.7"/>
    <path class="st2" d="M106.8,130.4h-1.9v2.4h1.9c.5,0,.8-.1,1.1-.3.2-.2.4-.5.4-.9h0c0-.4-.1-.7-.4-.9-.3-.2-.6-.3-1.1-.3Z"/>
    <path class="st2" d="M167.8,134c-.2-.2-.6-.2-1.1-.2h-2.2v1.9h2.2c.4,0,.7,0,1-.2.2-.1.4-.4.4-.7h0c0-.3-.1-.5-.3-.7Z"/>
    <polygon class="st2" points="342.7 133.7 345 133.7 343.8 130.9 342.7 133.7"/>
    <path class="st2" d="M.6,123.4v18.3h385.8v-18.3H.6ZM18.8,137.2l-.8-1.9h-3.6l-.8,1.9h-1.9l3.6-8.5h1.7l3.6,8.5h-1.9ZM32.5,137.2h-6.1v-8.5h1.9v6.8h4.2v1.7ZM47.5,137.3h-1.6l-1.9-5.5-1.9,5.5h-1.6l-2.9-8.5h2l1.8,5.7,1.9-5.8h1.6l1.9,5.8,1.8-5.7h1.9l-2.9,8.5ZM62.4,137.2l-.8-1.9h-3.6l-.8,1.9h-1.9l3.6-8.5h1.7l3.6,8.5h-1.9ZM74.3,133.9v3.4h-1.9v-3.3l-3.3-5.1h2.2l2,3.4,2.1-3.4h2.1l-3.3,5.1ZM89.2,134.7c0,.4,0,.8-.2,1.1s-.4.6-.6.8c-.3.2-.6.4-1,.5-.4.1-.8.2-1.3.2s-1.3-.1-1.9-.3c-.6-.2-1.2-.6-1.7-1l1.1-1.3c.4.3.8.6,1.2.8.4.2.9.3,1.3.3s.7,0,.9-.2c.2-.1.3-.3.3-.6h0c0-.1,0-.3,0-.3,0,0-.1-.2-.3-.3-.1,0-.3-.2-.5-.2-.2,0-.5-.2-.9-.3-.4-.1-.8-.2-1.2-.4-.3-.1-.6-.3-.9-.5-.2-.2-.4-.4-.6-.7-.1-.3-.2-.6-.2-1.1h0c0-.4,0-.8.2-1.1.1-.3.3-.6.6-.8.3-.2.6-.4.9-.5.4-.1.8-.2,1.2-.2.6,0,1.2,0,1.7.3.5.2,1,.5,1.4.8l-1,1.4c-.4-.3-.8-.5-1.1-.6-.4-.1-.7-.2-1.1-.2s-.6,0-.8.2c-.2.1-.3.3-.3.5h0c0,.2,0,.3,0,.4,0,.1.1.2.3.3.1,0,.3.2.6.2.2,0,.5.2.9.3.4.1.8.2,1.1.4.3.1.6.3.8.5.2.2.4.4.5.7.1.3.2.6.2,1h0ZM108.3,137.2l-1.8-2.7h-1.5v2.7h-1.9v-8.5h3.9c1,0,1.8.2,2.4.7.6.5.8,1.2.8,2.1h0c0,.7-.2,1.3-.5,1.7-.3.4-.8.7-1.3,1l2.1,3h-2.2ZM122.6,137.2h-6.4v-8.5h6.4v1.7h-4.5v1.7h4v1.7h-4v1.8h4.6v1.7ZM134.7,137.2h-6.1v-8.5h1.9v6.8h4.2v1.7ZM142.4,137.2h-1.9v-8.5h1.9v8.5ZM155.2,137.2l-.8-1.9h-3.6l-.8,1.9h-1.9l3.6-8.5h1.7l3.6,8.5h-1.9ZM170,134.9c0,.4,0,.7-.2,1-.1.3-.4.5-.6.7-.3.2-.6.3-1,.4-.4,0-.8.1-1.3.1h-4v-8.5h3.9c.9,0,1.6.2,2,.6.5.4.7.9.7,1.6h0c0,.3,0,.5,0,.7,0,.2-.1.4-.2.5-.1.1-.2.3-.3.4-.1.1-.3.2-.4.3.5.2.9.4,1.2.8.3.3.4.8.4,1.3h0ZM182,137.2h-6.1v-8.5h1.9v6.8h4.2v1.7ZM194.2,137.2h-6.4v-8.5h6.4v1.7h-4.5v1.7h4v1.7h-4v1.8h4.6v1.7ZM209.8,136.9c0,.8-.2,1.4-.6,1.7s-.9.5-1.7.5l-.2-.8c.9,0,1.3-.5,1.2-1.2h-.7v-1.9h1.9v1.6ZM230.2,137.2l-.8-1.9h-3.6l-.8,1.9h-1.9l3.6-8.5h1.7l3.6,8.5h-1.9ZM243.9,137.2h-6.1v-8.5h1.9v6.8h4.2v1.7ZM259,137.3h-1.6l-1.9-5.5-1.9,5.5h-1.6l-2.9-8.5h2l1.8,5.7,1.9-5.8h1.6l1.9,5.8,1.8-5.7h1.9l-2.9,8.5ZM273.9,137.2l-.8-1.9h-3.6l-.8,1.9h-1.9l3.6-8.5h1.7l3.6,8.5h-1.9ZM285.7,133.9v3.4h-1.9v-3.3l-3.3-5.1h2.2l2,3.4,2.1-3.4h2.1l-3.3,5.1ZM300.6,134.7c0,.4,0,.8-.2,1.1-.2.3-.4.6-.6.8-.3.2-.6.4-1,.5-.4.1-.8.2-1.3.2s-1.3-.1-1.9-.3c-.6-.2-1.2-.6-1.7-1l1.1-1.3c.4.3.8.6,1.2.8.4.2.9.3,1.3.3s.7,0,.9-.2.3-.3.3-.6h0c0-.1,0-.3,0-.3,0,0-.1-.2-.3-.3s-.3-.2-.5-.2c-.2,0-.5-.2-.9-.3-.4-.1-.8-.2-1.2-.4-.3-.1-.6-.3-.9-.5-.2-.2-.4-.4-.6-.7-.1-.3-.2-.6-.2-1.1h0c0-.4,0-.8.2-1.1.1-.3.3-.6.6-.8.3-.2.6-.4.9-.5.4-.1.8-.2,1.2-.2.6,0,1.2,0,1.7.3.5.2,1,.5,1.4.8l-1,1.4c-.4-.3-.8-.5-1.1-.6-.4-.1-.7-.2-1.1-.2s-.6,0-.8.2c-.2.1-.3.3-.3.5h0c0,.2,0,.3,0,.4,0,.1.1.2.3.3.1,0,.3.2.6.2.2,0,.5.2.9.3.4.1.8.2,1.1.4.3.1.6.3.8.5.2.2.4.4.5.7.1.3.2.6.2,1h0ZM319.7,137.2l-1.8-2.7h-1.5v2.7h-1.9v-8.5h3.9c1,0,1.8.2,2.4.7.6.5.8,1.2.8,2.1h0c0,.7-.2,1.3-.5,1.7-.3.4-.8.7-1.3,1l2.1,3h-2.2ZM334.1,137.2h-6.4v-8.5h6.4v1.7h-4.5v1.7h4v1.7h-4v1.8h4.6v1.7ZM346.4,137.2l-.8-1.9h-3.6l-.8,1.9h-1.9l3.6-8.5h1.7l3.6,8.5h-1.9ZM361.8,133c0,.6-.1,1.2-.3,1.7-.2.5-.5,1-.9,1.3-.4.4-.9.7-1.4.9s-1.2.3-1.8.3h-3.3v-8.5h3.3c.7,0,1.3.1,1.8.3.6.2,1,.5,1.4.9.4.4.7.8.9,1.3.2.5.3,1.1.3,1.7h0ZM372.1,133.9v3.4h-1.9v-3.3l-3.3-5.1h2.2l2,3.4,2.1-3.4h2.1l-3.3,5.1Z"/>
    <path class="st2" d="M359.2,131.2c-.2-.2-.5-.4-.8-.5-.3-.1-.7-.2-1-.2h-1.4v5.1h1.4c.4,0,.7,0,1-.2.3-.1.6-.3.8-.5s.4-.5.5-.8c.1-.3.2-.6.2-1h0c0-.4,0-.7-.2-1.1-.1-.3-.3-.6-.5-.8Z"/>
  </g>
  <path class="st4" d="M351.7,73.6c-1.1.5-2.3,1-3.5,1.3-2.4.7-5.1,1.1-7.9,1.1-4.2,0-8.1-.8-11.7-2.4-3.6-1.6-6.7-3.8-9.2-6.6-2.6-2.8-4.6-6-6-9.7-1.4-3.7-2.1-7.6-2.1-11.8s.7-8.1,2.1-11.8c1.4-3.7,3.4-6.9,5.9-9.6,2.5-2.7,5.6-4.9,9.1-6.5,3.5-1.6,7.4-2.4,11.7-2.4s8.1.8,11.7,2.4c3.6,1.6,6.7,3.8,9.2,6.6,2.6,2.8,4.6,6,6,9.7,1.4,3.7,2.1,7.6,2.1,11.8s-.4,5.9-1.1,8.6c-.4,1.5-1,3-1.6,4.4l11.6,10.4c1.9-3,3.4-6.2,4.6-9.7,1.5-4.5,2.3-9.2,2.3-14s-1.1-11.7-3.3-17.1c-2.2-5.4-5.2-10.1-9.2-14-3.9-4-8.6-7.1-14-9.5-5.5-2.3-11.5-3.5-18.1-3.5s-12.6,1.2-18.1,3.5c-5.5,2.4-10.2,5.6-14.2,9.6-4,4-7.1,8.7-9.3,14.1-2.2,5.4-3.3,11.1-3.3,17.1s1.1,11.7,3.3,17.1c2.2,5.4,5.2,10.1,9.2,14,3.9,4,8.6,7.1,14,9.5,5.5,2.3,11.5,3.5,18.1,3.5s9.7-.7,14-2.1c3.2-1.1,6.3-2.4,9.1-4.1l-11.4-10Z"/>
  <polygon class="st4" points="389.7 84.4 390 84.3 350 48.2 340.2 59.4 366.9 82.7 389.7 84.4"/>
</svg>