<?xml version="1.0" encoding="UTF-8"?>
<svg id="Layer_2" data-name="Layer 2" xmlns="http://www.w3.org/2000/svg" viewBox="0 0 990.42 319.3">
  <defs>
    <style>
      .cls-1 {
        fill: #14114a;
      }

      .cls-2 {
        fill: #be974a;
      }

      .cls-3, .cls-4 {
        fill: #1eaae7;
      }

      .cls-4 {
        font-family: Gotham-Bold, Gotham;
        font-size: 54.26px;
        font-weight: 700;
      }

      .cls-5 {
        fill: #fff;
      }
    </style>
  </defs>
  <g id="Layer_1-2" data-name="Layer 1">
    <g>
      <g>
        <g>
          <path class="cls-1" d="M158.68,101.33s-.05.1-.08.14l.3.29-.22-.43Z"/>
          <path class="cls-1" d="M147.8,97.06c0,2.23,1.81,4.04,4.04,4.04.75,0,1.45-.22,2.05-.58.03-.04.06-.08.09-.12.22-.23.47-.4.74-.52.71-.73,1.15-1.72,1.15-2.82,0-2.23-1.81-4.04-4.04-4.04s-4.04,1.81-4.04,4.04Z"/>
          <polygon class="cls-1" points="192 165.77 192 166.01 192.3 166.35 192 165.77"/>
          <path class="cls-1" d="M206.58,193.95l-1.9-3.67c0,.08-.02.16-.02.25,0,1.45.77,2.72,1.92,3.43Z"/>
          <path class="cls-5" d="M208.69,198.59c-4.46,0-8.08-3.62-8.08-8.08,0-1.84.62-3.53,1.66-4.89l-.83-1.6-9.45-10.73v15.35c3.19,1.08,5.49,4.09,5.49,7.64,0,4.46-3.62,8.08-8.08,8.08s-8.08-3.62-8.08-8.08c0-3.68,2.47-6.79,5.84-7.76v-20.72l-4.27-4.85h-16.25c-1.33,0-2.41-1.08-2.41-2.41s1.08-2.41,2.41-2.41h18.43l2.09,2.38v-4.08l-3.31-6.39-9.88-9.88h-21.28c-1.1,3.15-4.09,5.42-7.62,5.42-1.2,0-2.33-.27-3.35-.73l31.34,61.27h39.8l-3.91-7.56c-.1,0-.19.01-.28.01ZM157.99,164.42c-2.13,0-3.85-1.73-3.85-3.85s1.73-3.85,3.85-3.85,3.85,1.73,3.85,3.85-1.73,3.85-3.85,3.85Z"/>
          <circle class="cls-1" cx="189.42" cy="196.3" r="4.04"/>
          <circle class="cls-1" cx="145.1" cy="137.53" r="4.04"/>
          <path class="cls-1" d="M106.92,76.76l30.26,59.17c.74-3.7,4-6.49,7.92-6.49,3.71,0,6.83,2.51,7.77,5.92h23.12l.59.59-10.88-21.04-10.86-10.36c-.93.37-1.94.58-3,.58-4.46,0-8.08-3.62-8.08-8.08s3.62-8.08,8.08-8.08c.15,0,.31.01.46.02L106.26,0,.95,206.14h39.81l90.84-45.42-72.94,6.55,48.26-90.51Z"/>
        </g>
        <g>
          <path class="cls-5" d="M158.68,101.33s-.05.1-.08.14l.3.29-.22-.43Z"/>
          <path class="cls-5" d="M147.8,97.06c0,2.23,1.81,4.04,4.04,4.04.75,0,1.45-.22,2.05-.58.03-.04.06-.08.09-.12.22-.23.47-.4.74-.52.71-.73,1.15-1.72,1.15-2.82,0-2.23-1.81-4.04-4.04-4.04s-4.04,1.81-4.04,4.04Z"/>
          <polygon class="cls-5" points="192 165.77 192 166.01 192.3 166.35 192 165.77"/>
          <path class="cls-5" d="M206.58,193.95l-1.9-3.67c0,.08-.02.16-.02.25,0,1.45.77,2.72,1.92,3.43Z"/>
          <path class="cls-5" d="M208.69,198.59c-4.46,0-8.08-3.62-8.08-8.08,0-1.84.62-3.53,1.66-4.89l-.83-1.6-9.45-10.73v15.35c3.19,1.08,5.49,4.09,5.49,7.64,0,4.46-3.62,8.08-8.08,8.08s-8.08-3.62-8.08-8.08c0-3.68,2.47-6.79,5.84-7.76v-20.72l-4.27-4.85h-16.25c-1.33,0-2.41-1.08-2.41-2.41s1.08-2.41,2.41-2.41h18.43l2.09,2.38v-4.08l-3.31-6.39-9.88-9.88h-21.28c-1.1,3.15-4.09,5.42-7.62,5.42-1.2,0-2.33-.27-3.35-.73l31.34,61.27h39.8l-3.91-7.56c-.1,0-.19.01-.28.01ZM157.99,164.42c-2.13,0-3.85-1.73-3.85-3.85s1.73-3.85,3.85-3.85,3.85,1.73,3.85,3.85-1.73,3.85-3.85,3.85Z"/>
          <circle class="cls-5" cx="189.42" cy="196.3" r="4.04"/>
          <circle class="cls-5" cx="145.1" cy="137.53" r="4.04"/>
          <path class="cls-5" d="M106.92,76.76l30.26,59.17c.74-3.7,4-6.49,7.92-6.49,3.71,0,6.83,2.51,7.77,5.92h23.12l.59.59-10.88-21.04-10.86-10.36c-.93.37-1.94.58-3,.58-4.46,0-8.08-3.62-8.08-8.08s3.62-8.08,8.08-8.08c.15,0,.31.01.46.02L106.26,0,.95,206.14h39.81l90.84-45.42-72.94,6.55,48.26-90.51Z"/>
        </g>
      </g>
      <g>
        <g>
          <path class="cls-2" d="M172.13,82.13l-.58,21.09,38.95,35.05-.65,23.53c-1.18.75-1.98,2.05-2.03,3.55-.07,2.39,1.82,4.39,4.21,4.45,2.39.07,4.39-1.82,4.45-4.22.05-1.88-1.11-3.51-2.78-4.15l.68-24.84-38.95-35.05.53-19.37c2.22-.76,3.85-2.83,3.91-5.31.09-3.19-2.43-5.85-5.62-5.94-3.19-.09-5.85,2.43-5.94,5.62-.07,2.55,1.52,4.75,3.79,5.58ZM174.2,73.81c1.6.04,2.85,1.37,2.81,2.97-.04,1.43-1.11,2.58-2.48,2.77-.13-.03-.26-.05-.4-.05-.17,0-.32.01-.48.04-1.41-.23-2.47-1.46-2.43-2.92.04-1.6,1.37-2.85,2.97-2.81Z"/>
          <circle class="cls-2" cx="222.06" cy="111.91" r="3.37"/>
          <path class="cls-2" d="M158.68,101.33c.78-1.24,1.24-2.7,1.24-4.28,0-4.31-3.37-7.81-7.62-8.05l6.38,12.33Z"/>
          <polygon class="cls-2" points="183.88 150.07 187.19 153.37 187.19 156.46 192 165.77 192 151.38 176.58 135.96 183.88 150.07"/>
          <path class="cls-2" d="M223.99,175.83s0-.02,0-.03v-45.15l-9.83-8.89v-19.37c1.53-.67,2.6-2.19,2.6-3.97,0-2.39-1.94-4.34-4.34-4.34s-4.34,1.94-4.34,4.34c0,1.62.9,3.02,2.22,3.76v16.09l-6.29-5.69v-20.2c0-.06-.01-.11-.02-.16,2.12-.86,3.61-2.93,3.61-5.35,0-3.19-2.59-5.78-5.78-5.78s-5.78,2.59-5.78,5.78c0,2.61,1.74,4.82,4.12,5.54v16.7l-13.9-12.58c-.79-.71-2.01-.65-2.72.14-.71.79-.65,2.01.14,2.72l36.46,32.99v43.44s0,.02,0,.03c-2.25.79-3.86,2.93-3.86,5.45,0,3.19,2.59,5.78,5.78,5.78s5.78-2.59,5.78-5.78c0-2.52-1.61-4.65-3.86-5.45ZM201.83,89.75c-1.6,0-2.89-1.29-2.89-2.89s1.29-2.89,2.89-2.89,2.89,1.29,2.89,2.89-1.29,2.89-2.89,2.89ZM222.06,184.17c-1.6,0-2.89-1.29-2.89-2.89s1.29-2.89,2.89-2.89,2.89,1.29,2.89,2.89-1.29,2.89-2.89,2.89Z"/>
          <path class="cls-2" d="M208.69,182.44c-.69,0-1.36.1-1.99.26l-2.94-3.34v-34.79l-44.86-42.81,6.8,13.15,33.24,31.72v27.26l-6.64-7.54,9.15,17.69,1.1,1.25c-.1.11-.18.23-.27.35l2.4,4.64c.13-2.11,1.87-3.79,4.01-3.79s4.04,1.81,4.04,4.04-1.81,4.04-4.04,4.04c-.78,0-1.5-.23-2.11-.61l2.4,4.63c4.33-.15,7.79-3.7,7.79-8.06s-3.62-8.08-8.08-8.08Z"/>
        </g>
        <g>
          <path class="cls-3" d="M172.13,82.13l-.58,21.09,38.95,35.05-.65,23.53c-1.18.75-1.98,2.05-2.03,3.55-.07,2.39,1.82,4.39,4.21,4.45,2.39.07,4.39-1.82,4.45-4.22.05-1.88-1.11-3.51-2.78-4.15l.68-24.84-38.95-35.05.53-19.37c2.22-.76,3.85-2.83,3.91-5.31.09-3.19-2.43-5.85-5.62-5.94-3.19-.09-5.85,2.43-5.94,5.62-.07,2.55,1.52,4.75,3.79,5.58ZM174.2,73.81c1.6.04,2.85,1.37,2.81,2.97-.04,1.43-1.11,2.58-2.48,2.77-.13-.03-.26-.05-.4-.05-.17,0-.32.01-.48.04-1.41-.23-2.47-1.46-2.43-2.92.04-1.6,1.37-2.85,2.97-2.81Z"/>
          <circle class="cls-3" cx="222.06" cy="111.91" r="3.37"/>
          <path class="cls-3" d="M158.68,101.33c.78-1.24,1.24-2.7,1.24-4.28,0-4.31-3.37-7.81-7.62-8.05l6.38,12.33Z"/>
          <polygon class="cls-3" points="183.88 150.07 187.19 153.37 187.19 156.46 192 165.77 192 151.38 176.58 135.96 183.88 150.07"/>
          <path class="cls-3" d="M223.99,175.83s0-.02,0-.03v-45.15l-9.83-8.89v-19.37c1.53-.67,2.6-2.19,2.6-3.97,0-2.39-1.94-4.34-4.34-4.34s-4.34,1.94-4.34,4.34c0,1.62.9,3.02,2.22,3.76v16.09l-6.29-5.69v-20.2c0-.06-.01-.11-.02-.16,2.12-.86,3.61-2.93,3.61-5.35,0-3.19-2.59-5.78-5.78-5.78s-5.78,2.59-5.78,5.78c0,2.61,1.74,4.82,4.12,5.54v16.7l-13.9-12.58c-.79-.71-2.01-.65-2.72.14-.71.79-.65,2.01.14,2.72l36.46,32.99v43.44s0,.02,0,.03c-2.25.79-3.86,2.93-3.86,5.45,0,3.19,2.59,5.78,5.78,5.78s5.78-2.59,5.78-5.78c0-2.52-1.61-4.65-3.86-5.45ZM201.83,89.75c-1.6,0-2.89-1.29-2.89-2.89s1.29-2.89,2.89-2.89,2.89,1.29,2.89,2.89-1.29,2.89-2.89,2.89ZM222.06,184.17c-1.6,0-2.89-1.29-2.89-2.89s1.29-2.89,2.89-2.89,2.89,1.29,2.89,2.89-1.29,2.89-2.89,2.89Z"/>
          <path class="cls-3" d="M208.69,182.44c-.69,0-1.36.1-1.99.26l-2.94-3.34v-34.79l-44.86-42.81,6.8,13.15,33.24,31.72v27.26l-6.64-7.54,9.15,17.69,1.1,1.25c-.1.11-.18.23-.27.35l2.4,4.64c.13-2.11,1.87-3.79,4.01-3.79s4.04,1.81,4.04,4.04-1.81,4.04-4.04,4.04c-.78,0-1.5-.23-2.11-.61l2.4,4.63c4.33-.15,7.79-3.7,7.79-8.06s-3.62-8.08-8.08-8.08Z"/>
        </g>
      </g>
      <g>
        <path d="M421.97,35.14h-114.29v55.42h101.37v31.88h-101.37v81.84h-35.03V3.26h149.33v31.88Z"/>
        <path class="cls-5" d="M421.97,35.14h-114.29v55.42h101.37v31.88h-101.37v81.84h-35.03V3.26h149.33v31.88Z"/>
      </g>
      <g>
        <path d="M869.7,180.75l-21.74,24.21-23.11-20.63c-8.25,5.69-17.24,10.14-26.96,13.34-9.72,3.21-20.27,4.81-31.64,4.81-14.86,0-28.43-2.61-40.72-7.84-12.29-5.23-22.84-12.33-31.64-21.32-8.8-8.99-15.68-19.53-20.63-31.64-4.95-12.11-7.43-24.94-7.43-38.52s2.48-26.41,7.43-38.52c4.95-12.11,11.92-22.7,20.91-31.78,8.98-9.08,19.62-16.28,31.91-21.6,12.29-5.32,25.86-7.98,40.72-7.98s28.43,2.61,40.72,7.84c12.29,5.23,22.84,12.34,31.64,21.32,8.8,8.99,15.68,19.53,20.63,31.64,4.95,12.11,7.43,24.95,7.43,38.52,0,11.01-1.7,21.55-5.09,31.64-3.4,10.09-8.21,19.35-14.44,27.79l22.01,18.71ZM766.8,133.97l21.74-24.76,33.29,30.26c3.3-5.13,5.78-10.77,7.43-16.92,1.65-6.14,2.48-12.61,2.48-19.4,0-9.36-1.61-18.2-4.81-26.55-3.21-8.34-7.7-15.64-13.48-21.87-5.78-6.23-12.7-11.19-20.77-14.86-8.07-3.67-16.88-5.5-26.41-5.5s-18.3,1.79-26.27,5.36c-7.98,3.58-14.81,8.44-20.5,14.58-5.69,6.15-10.14,13.39-13.34,21.74-3.21,8.35-4.81,17.2-4.81,26.55s1.6,18.21,4.81,26.55c3.21,8.35,7.7,15.64,13.48,21.87,5.78,6.24,12.7,11.19,20.77,14.86,8.07,3.67,16.87,5.5,26.41,5.5,6.42,0,12.38-.83,17.88-2.48,5.5-1.65,10.54-3.94,15.13-6.88l-33.02-28.06Z"/>
        <path class="cls-5" d="M869.7,180.75l-21.74,24.21-23.11-20.63c-8.25,5.69-17.24,10.14-26.96,13.34-9.72,3.21-20.27,4.81-31.64,4.81-14.86,0-28.43-2.61-40.72-7.84-12.29-5.23-22.84-12.33-31.64-21.32-8.8-8.99-15.68-19.53-20.63-31.64-4.95-12.11-7.43-24.94-7.43-38.52s2.48-26.41,7.43-38.52c4.95-12.11,11.92-22.7,20.91-31.78,8.98-9.08,19.62-16.28,31.91-21.6,12.29-5.32,25.86-7.98,40.72-7.98s28.43,2.61,40.72,7.84c12.29,5.23,22.84,12.34,31.64,21.32,8.8,8.99,15.68,19.53,20.63,31.64,4.95,12.11,7.43,24.95,7.43,38.52,0,11.01-1.7,21.55-5.09,31.64-3.4,10.09-8.21,19.35-14.44,27.79l22.01,18.71ZM766.8,133.97l21.74-24.76,33.29,30.26c3.3-5.13,5.78-10.77,7.43-16.92,1.65-6.14,2.48-12.61,2.48-19.4,0-9.36-1.61-18.2-4.81-26.55-3.21-8.34-7.7-15.64-13.48-21.87-5.78-6.23-12.7-11.19-20.77-14.86-8.07-3.67-16.88-5.5-26.41-5.5s-18.3,1.79-26.27,5.36c-7.98,3.58-14.81,8.44-20.5,14.58-5.69,6.15-10.14,13.39-13.34,21.74-3.21,8.35-4.81,17.2-4.81,26.55s1.6,18.21,4.81,26.55c3.21,8.35,7.7,15.64,13.48,21.87,5.78,6.24,12.7,11.19,20.77,14.86,8.07,3.67,16.87,5.5,26.41,5.5,6.42,0,12.38-.83,17.88-2.48,5.5-1.65,10.54-3.94,15.13-6.88l-33.02-28.06Z"/>
      </g>
      <g>
        <path class="cls-5" d="M24.86,251.64c-.72,1.72-1.75,3.21-3.08,4.46-1.33,1.26-2.91,2.25-4.75,2.98-1.84.72-3.86,1.09-6.05,1.09H0v-28.16h10.98c2.2,0,4.22.36,6.05,1.07,1.84.71,3.42,1.7,4.75,2.96,1.33,1.26,2.35,2.74,3.08,4.45s1.09,3.55,1.09,5.53v.08c0,1.99-.36,3.84-1.09,5.55ZM19.47,246.08c0-1.23-.21-2.37-.62-3.42-.42-1.05-.99-1.94-1.73-2.7-.74-.75-1.63-1.33-2.68-1.75-1.05-.42-2.2-.62-3.46-.62h-4.79v16.98h4.79c1.26,0,2.41-.2,3.46-.6s1.94-.98,2.68-1.73c.74-.75,1.31-1.64,1.73-2.66.42-1.02.62-2.16.62-3.42v-.08Z"/>
        <path class="cls-5" d="M46.18,260.16v-28.16h6.2v28.16h-6.2Z"/>
        <path class="cls-5" d="M94.27,259.34c-2,.87-4.28,1.31-6.86,1.31-2.2,0-4.2-.36-6.01-1.09-1.81-.72-3.37-1.73-4.67-3.02-1.3-1.29-2.31-2.82-3.04-4.59-.72-1.77-1.09-3.7-1.09-5.79v-.08c0-2.01.37-3.89,1.11-5.65.74-1.76,1.76-3.3,3.08-4.63,1.31-1.33,2.87-2.37,4.67-3.14,1.8-.76,3.77-1.15,5.91-1.15,1.26,0,2.41.09,3.44.26,1.03.17,1.99.42,2.88.74.88.32,1.72.72,2.49,1.21.78.48,1.53,1.03,2.25,1.65l-3.9,4.71c-.54-.46-1.07-.86-1.61-1.21-.54-.35-1.09-.64-1.67-.88-.58-.24-1.2-.43-1.87-.56-.67-.13-1.41-.2-2.21-.2-1.13,0-2.18.24-3.16.71-.98.47-1.84,1.1-2.57,1.89-.74.79-1.31,1.72-1.73,2.78-.42,1.06-.62,2.2-.62,3.41v.08c0,1.29.21,2.48.62,3.57.42,1.09,1.01,2.04,1.77,2.84.76.81,1.66,1.43,2.7,1.87,1.03.44,2.18.67,3.44.67,2.31,0,4.25-.57,5.83-1.7v-4.05h-6.24v-5.35h12.23v12.23c-1.45,1.23-3.17,2.29-5.17,3.16Z"/>
        <path class="cls-5" d="M120.12,260.16v-28.16h6.2v28.16h-6.2Z"/>
        <path class="cls-5" d="M160.55,237.72v22.45h-6.2v-22.45h-8.57v-5.71h23.33v5.71h-8.57Z"/>
        <path class="cls-5" d="M209.27,260.16l-2.57-6.32h-11.91l-2.57,6.32h-6.32l12.07-28.36h5.71l12.07,28.36h-6.48ZM200.74,239.25l-3.74,9.13h7.48l-3.74-9.13Z"/>
        <path class="cls-5" d="M234.53,260.16v-28.16h6.2v22.57h14.04v5.59h-20.23Z"/>
        <path class="cls-5" d="M300.66,260.16v-28.16h6.2v28.16h-6.2Z"/>
        <path class="cls-5" d="M348.09,260.16l-13.64-17.9v17.9h-6.11v-28.16h5.71l13.19,17.34v-17.34h6.11v28.16h-5.27Z"/>
        <path class="cls-5" d="M380.76,237.6v6.07h13.44v5.59h-13.44v10.9h-6.2v-28.16h21.44v5.59h-15.25Z"/>
        <path class="cls-5" d="M432.49,260.16l-6.03-9.01h-4.87v9.01h-6.2v-28.16h12.87c3.35,0,5.96.82,7.82,2.45,1.86,1.64,2.8,3.92,2.8,6.84v.08c0,2.28-.56,4.14-1.67,5.57-1.11,1.43-2.57,2.49-4.36,3.16l6.88,10.06h-7.24ZM432.61,241.62c0-1.34-.43-2.35-1.29-3.02-.86-.67-2.05-1-3.58-1h-6.15v8.08h6.28c1.53,0,2.7-.36,3.52-1.09.82-.72,1.23-1.69,1.23-2.9v-.08Z"/>
        <path class="cls-5" d="M479.88,260.16l-2.57-6.32h-11.91l-2.57,6.32h-6.32l12.07-28.36h5.71l12.07,28.36h-6.48ZM471.35,239.25l-3.74,9.13h7.48l-3.74-9.13Z"/>
        <path class="cls-5" d="M524.74,255.56c-.51,1.09-1.21,2-2.12,2.74s-1.99,1.3-3.24,1.69c-1.26.39-2.65.58-4.18.58-2.15,0-4.25-.37-6.32-1.11-2.07-.74-3.94-1.87-5.63-3.4l3.66-4.38c1.29,1.05,2.61,1.88,3.96,2.49,1.35.62,2.84.93,4.45.93,1.29,0,2.29-.23,3-.7.71-.47,1.07-1.12,1.07-1.95v-.08c0-.4-.07-.76-.22-1.07-.15-.31-.43-.6-.85-.87-.42-.27-1-.54-1.73-.8-.74-.27-1.7-.55-2.88-.84-1.43-.35-2.72-.74-3.87-1.17s-2.14-.96-2.94-1.59c-.81-.63-1.43-1.42-1.88-2.35s-.67-2.11-.67-3.5v-.08c0-1.29.24-2.45.72-3.48.48-1.03,1.15-1.92,2.02-2.67.87-.75,1.9-1.33,3.1-1.73s2.53-.6,3.98-.6c2.07,0,3.96.31,5.69.92,1.73.62,3.32,1.5,4.77,2.66l-3.22,4.67c-1.26-.86-2.49-1.53-3.7-2.03-1.21-.5-2.41-.74-3.62-.74s-2.11.24-2.72.7c-.6.47-.91,1.05-.91,1.75v.08c0,.46.09.85.26,1.19.17.34.49.64.95.91.46.27,1.08.52,1.88.76s1.79.52,3,.84c1.43.38,2.7.8,3.81,1.27,1.12.47,2.06,1.03,2.82,1.69.77.66,1.34,1.43,1.73,2.31.39.89.58,1.95.58,3.18v.08c0,1.39-.25,2.63-.76,3.72Z"/>
        <path class="cls-5" d="M558.08,237.72v22.45h-6.2v-22.45h-8.57v-5.71h23.33v5.71h-8.57Z"/>
        <path class="cls-5" d="M602.93,260.16l-6.03-9.01h-4.87v9.01h-6.2v-28.16h12.87c3.35,0,5.96.82,7.82,2.45s2.8,3.92,2.8,6.84v.08c0,2.28-.56,4.14-1.67,5.57-1.11,1.43-2.57,2.49-4.37,3.16l6.88,10.06h-7.24ZM603.05,241.62c0-1.34-.43-2.35-1.29-3.02-.86-.67-2.05-1-3.58-1h-6.16v8.08h6.28c1.53,0,2.7-.36,3.52-1.09.82-.72,1.23-1.69,1.23-2.9v-.08Z"/>
        <path class="cls-5" d="M652.59,253.49c-.58,1.58-1.4,2.9-2.47,3.96-1.07,1.06-2.37,1.85-3.9,2.37-1.53.52-3.23.78-5.11.78-3.78,0-6.76-1.05-8.93-3.14s-3.26-5.22-3.26-9.37v-16.09h6.2v15.93c0,2.31.54,4.04,1.61,5.21,1.07,1.17,2.56,1.75,4.46,1.75s3.39-.56,4.47-1.69c1.07-1.13,1.61-2.82,1.61-5.07v-16.13h6.2v15.89c0,2.15-.29,4.01-.86,5.59Z"/>
        <path class="cls-5" d="M696.7,257.71c-.78.62-1.63,1.15-2.55,1.59-.92.44-1.94.78-3.04,1.01s-2.33.34-3.7.34c-2.07,0-3.98-.38-5.75-1.13-1.77-.75-3.3-1.78-4.59-3.08s-2.29-2.84-3.02-4.61c-.72-1.77-1.09-3.66-1.09-5.67v-.08c0-2.01.36-3.89,1.09-5.65.72-1.76,1.73-3.3,3.02-4.63,1.29-1.33,2.83-2.37,4.63-3.14,1.8-.76,3.78-1.15,5.95-1.15,1.31,0,2.51.11,3.6.32,1.09.21,2.07.51,2.96.88.88.38,1.7.83,2.45,1.37.75.54,1.45,1.13,2.09,1.77l-3.94,4.55c-1.1-.99-2.22-1.77-3.36-2.33s-2.42-.84-3.84-.84c-1.18,0-2.27.23-3.28.68-1.01.46-1.87,1.09-2.59,1.89-.72.8-1.29,1.74-1.69,2.8-.4,1.06-.6,2.19-.6,3.4v.08c0,1.21.2,2.35.6,3.42.4,1.07.96,2.01,1.67,2.82.71.8,1.57,1.44,2.57,1.91,1.01.47,2.11.7,3.32.7,1.61,0,2.97-.29,4.08-.88,1.11-.59,2.22-1.39,3.32-2.41l3.94,3.98c-.72.78-1.48,1.48-2.25,2.09Z"/>
        <path class="cls-5" d="M731.1,237.72v22.45h-6.19v-22.45h-8.57v-5.71h23.33v5.71h-8.57Z"/>
        <path class="cls-5" d="M782.09,253.49c-.58,1.58-1.4,2.9-2.47,3.96-1.07,1.06-2.37,1.85-3.9,2.37-1.53.52-3.23.78-5.11.78-3.78,0-6.76-1.05-8.93-3.14-2.17-2.09-3.26-5.22-3.26-9.37v-16.09h6.2v15.93c0,2.31.54,4.04,1.61,5.21,1.07,1.17,2.56,1.75,4.46,1.75s3.39-.56,4.46-1.69c1.07-1.13,1.61-2.82,1.61-5.07v-16.13h6.2v15.89c0,2.15-.29,4.01-.87,5.59Z"/>
        <path class="cls-5" d="M820.81,260.16l-6.03-9.01h-4.87v9.01h-6.2v-28.16h12.87c3.35,0,5.96.82,7.82,2.45s2.8,3.92,2.8,6.84v.08c0,2.28-.56,4.14-1.67,5.57-1.11,1.43-2.57,2.49-4.37,3.16l6.88,10.06h-7.24ZM820.93,241.62c0-1.34-.43-2.35-1.29-3.02-.86-.67-2.05-1-3.58-1h-6.16v8.08h6.28c1.53,0,2.7-.36,3.52-1.09.82-.72,1.23-1.69,1.23-2.9v-.08Z"/>
        <path class="cls-5" d="M847.24,260.16v-28.16h21.2v5.51h-15.08v5.71h13.27v5.51h-13.27v5.91h15.29v5.51h-21.4Z"/>
      </g>
      <text class="cls-4" transform="translate(886.88 181.31)"><tspan x="0" y="0">ADI</tspan></text>
      <polygon class="cls-3" points="517.11 161.49 606.41 206.14 645.53 206.14 542.01 3.51 437.21 206.14 476.33 206.14 541.37 78.97 588.8 167.93 517.11 161.49"/>
      <g>
        <polygon class="cls-3" points="510.56 301.29 515.63 301.29 513.1 295.1 510.56 301.29"/>
        <polygon class="cls-3" points="608.95 301.29 614.03 301.29 611.49 295.1 608.95 301.29"/>
        <path class="cls-3" d="M717.3,293.98h-4.17v5.48h4.25c1.04,0,1.83-.25,2.39-.74.55-.49.83-1.15.83-1.96v-.05c0-.91-.29-1.59-.87-2.04s-1.39-.68-2.43-.68Z"/>
        <path class="cls-3" d="M377.1,297.43c.55-.32.82-.83.82-1.54v-.05c0-.64-.24-1.12-.71-1.46-.47-.34-1.15-.5-2.04-.5h-4.15v4.04h3.87c.93,0,1.66-.16,2.21-.48Z"/>
        <polygon class="cls-3" points="132.42 301.29 137.49 301.29 134.95 295.1 132.42 301.29"/>
        <polygon class="cls-3" points="34.02 301.29 39.1 301.29 36.56 295.1 34.02 301.29"/>
        <polygon class="cls-3" points="341.48 301.29 346.55 301.29 344.02 295.1 341.48 301.29"/>
        <path class="cls-3" d="M240.77,293.98h-4.17v5.48h4.25c1.04,0,1.83-.25,2.39-.74.55-.49.83-1.15.83-1.96v-.05c0-.91-.29-1.59-.87-2.04-.58-.45-1.39-.68-2.43-.68Z"/>
        <path class="cls-3" d="M378.24,301.96c-.49-.37-1.28-.56-2.37-.56h-4.85v4.2h4.99c.93,0,1.65-.17,2.18-.5.53-.34.79-.86.79-1.57v-.05c0-.64-.25-1.14-.74-1.51Z"/>
        <polygon class="cls-3" points="772.39 301.29 777.46 301.29 774.93 295.1 772.39 301.29"/>
        <path class="cls-3" d="M1.46,278.08v41.22h869.43v-41.22H1.46ZM42.34,309.28l-1.75-4.28h-8.07l-1.75,4.28h-4.28l8.18-19.23h3.87l8.18,19.23h-4.39ZM73.18,309.28h-13.72v-19.09h4.2v15.3h9.52v3.79ZM107.11,309.42h-3.65l-4.31-12.49-4.31,12.49h-3.65l-6.52-19.23h4.5l3.95,12.93,4.28-12.98h3.6l4.28,12.98,3.95-12.93h4.39l-6.52,19.23ZM140.74,309.28l-1.75-4.28h-8.07l-1.75,4.28h-4.28l8.18-19.23h3.87l8.18,19.23h-4.39ZM167.43,301.67v7.61h-4.2v-7.53l-7.34-11.56h4.91l4.55,7.66,4.64-7.66h4.77l-7.34,11.48ZM200.98,303.64c0,.95-.17,1.79-.51,2.52s-.82,1.35-1.44,1.85c-.61.5-1.35.88-2.2,1.15-.85.26-1.8.4-2.83.4-1.45,0-2.88-.25-4.28-.75-1.4-.5-2.67-1.27-3.82-2.3l2.48-2.97c.87.71,1.77,1.27,2.69,1.69.92.42,1.92.63,3.01.63.87,0,1.55-.16,2.03-.48.48-.32.72-.76.72-1.32v-.05c0-.27-.05-.51-.15-.72-.1-.21-.29-.4-.57-.59-.28-.18-.67-.36-1.18-.55-.5-.18-1.15-.37-1.96-.57-.97-.24-1.84-.5-2.63-.79-.78-.29-1.45-.65-2-1.08-.55-.43-.97-.96-1.27-1.6-.3-.64-.45-1.43-.45-2.37v-.05c0-.87.16-1.66.49-2.36.33-.7.78-1.3,1.37-1.81.59-.51,1.29-.9,2.1-1.17.81-.27,1.71-.41,2.69-.41,1.4,0,2.69.21,3.86.63,1.17.42,2.25,1.02,3.23,1.8l-2.18,3.16c-.85-.58-1.69-1.04-2.51-1.38-.82-.34-1.64-.5-2.45-.5s-1.43.16-1.84.48c-.41.32-.61.71-.61,1.19v.05c0,.31.06.58.18.8.12.23.33.43.64.61.31.18.73.35,1.27.52.54.16,1.22.35,2.04.57.97.25,1.83.54,2.58.86.76.32,1.39.7,1.91,1.15.52.45.91.97,1.18,1.57.26.6.4,1.32.4,2.16v.05ZM243.98,309.28l-4.09-6.11h-3.3v6.11h-4.2v-19.09h8.73c2.27,0,4.04.55,5.3,1.66,1.26,1.11,1.9,2.66,1.9,4.64v.05c0,1.54-.38,2.8-1.13,3.78-.75.97-1.74,1.69-2.96,2.14l4.66,6.82h-4.91ZM276.41,309.28h-14.51v-19.09h14.37v3.74h-10.23v3.87h9v3.74h-9v4.01h10.36v3.74ZM303.68,309.28h-13.72v-19.09h4.2v15.3h9.52v3.79ZM321.03,309.28h-4.2v-19.09h4.2v19.09ZM349.8,309.28l-1.75-4.28h-8.07l-1.75,4.28h-4.28l8.18-19.23h3.87l8.18,19.23h-4.39ZM383.12,304.04c0,.87-.17,1.64-.5,2.29-.34.65-.82,1.2-1.44,1.64-.63.44-1.38.76-2.26.98-.88.22-1.86.33-2.93.33h-9.07v-19.09h8.85c1.96,0,3.5.45,4.61,1.34,1.12.89,1.67,2.09,1.67,3.6v.05c0,.55-.07,1.03-.2,1.45-.14.42-.32.8-.54,1.13-.23.34-.49.63-.79.89-.3.25-.62.47-.96.65,1.1.42,1.97.99,2.61,1.71.63.72.95,1.71.95,2.99v.05ZM410.12,309.28h-13.72v-19.09h4.2v15.3h9.52v3.79ZM437.58,309.28h-14.51v-19.09h14.37v3.74h-10.23v3.87h9v3.74h-9v4.01h10.36v3.74ZM472.9,308.6c0,1.8-.44,3.09-1.31,3.89s-2.12,1.2-3.74,1.21l-.35-1.72c1.93-.2,2.82-1.1,2.67-2.7h-1.66v-4.36h4.39v3.68ZM518.88,309.28l-1.75-4.28h-8.07l-1.75,4.28h-4.28l8.18-19.23h3.87l8.18,19.23h-4.39ZM549.72,309.28h-13.72v-19.09h4.2v15.3h9.52v3.79ZM583.65,309.42h-3.65l-4.31-12.49-4.31,12.49h-3.65l-6.52-19.23h4.5l3.95,12.93,4.28-12.98h3.6l4.28,12.98,3.96-12.93h4.39l-6.52,19.23ZM617.27,309.28l-1.75-4.28h-8.07l-1.75,4.28h-4.28l8.18-19.23h3.87l8.18,19.23h-4.39ZM643.97,301.67v7.61h-4.2v-7.53l-7.34-11.56h4.91l4.55,7.66,4.64-7.66h4.77l-7.34,11.48ZM677.51,303.64c0,.95-.17,1.79-.51,2.52-.34.74-.82,1.35-1.44,1.85-.61.5-1.35.88-2.2,1.15-.85.26-1.8.4-2.83.4-1.46,0-2.88-.25-4.28-.75-1.4-.5-2.67-1.27-3.82-2.3l2.48-2.97c.87.71,1.77,1.27,2.69,1.69.92.42,1.92.63,3.01.63.87,0,1.55-.16,2.03-.48s.72-.76.72-1.32v-.05c0-.27-.05-.51-.15-.72-.1-.21-.29-.4-.57-.59s-.67-.36-1.18-.55c-.5-.18-1.15-.37-1.96-.57-.97-.24-1.84-.5-2.62-.79-.78-.29-1.45-.65-2-1.08-.55-.43-.97-.96-1.27-1.6-.3-.64-.45-1.43-.45-2.37v-.05c0-.87.16-1.66.49-2.36.33-.7.78-1.3,1.37-1.81.59-.51,1.29-.9,2.1-1.17.81-.27,1.71-.41,2.7-.41,1.4,0,2.69.21,3.86.63,1.17.42,2.25,1.02,3.23,1.8l-2.18,3.16c-.85-.58-1.69-1.04-2.51-1.38-.82-.34-1.64-.5-2.45-.5s-1.43.16-1.84.48c-.41.32-.61.71-.61,1.19v.05c0,.31.06.58.18.8.12.23.33.43.64.61.31.18.73.35,1.27.52.54.16,1.22.35,2.04.57.97.25,1.83.54,2.58.86.76.32,1.39.7,1.91,1.15.52.45.91.97,1.18,1.57.26.6.4,1.32.4,2.16v.05ZM720.52,309.28l-4.09-6.11h-3.3v6.11h-4.2v-19.09h8.73c2.27,0,4.04.55,5.3,1.66,1.26,1.11,1.89,2.66,1.89,4.64v.05c0,1.54-.38,2.8-1.13,3.78-.75.97-1.74,1.69-2.96,2.14l4.66,6.82h-4.91ZM752.95,309.28h-14.51v-19.09h14.37v3.74h-10.23v3.87h9v3.74h-9v4.01h10.36v3.74ZM780.71,309.28l-1.75-4.28h-8.07l-1.75,4.28h-4.28l8.18-19.23h3.87l8.18,19.23h-4.39ZM815.42,299.74c0,1.35-.25,2.6-.74,3.76-.49,1.16-1.19,2.17-2.09,3.03-.9.85-1.97,1.53-3.22,2.02s-2.61.74-4.1.74h-7.44v-19.09h7.44c1.49,0,2.86.24,4.1.72,1.25.48,2.32,1.15,3.22,2,.9.85,1.59,1.86,2.09,3.01.49,1.16.74,2.41.74,3.75v.05ZM838.52,301.67v7.61h-4.2v-7.53l-7.34-11.56h4.91l4.55,7.66,4.64-7.66h4.77l-7.34,11.48Z"/>
        <path class="cls-3" d="M809.44,295.59c-.5-.51-1.1-.9-1.81-1.19-.71-.28-1.49-.42-2.35-.42h-3.25v11.51h3.25c.85,0,1.64-.14,2.35-.41.71-.27,1.31-.66,1.81-1.17s.89-1.11,1.17-1.8c.28-.69.42-1.46.42-2.32v-.05c0-.84-.14-1.61-.42-2.32-.28-.71-.67-1.32-1.17-1.83Z"/>
      </g>
    </g>
  </g>
</svg>