<svg xmlns="http://www.w3.org/2000/svg" width="179" height="52" viewBox="0 0 179 52" fill="none"><g id="Logo" clip-path="url(#clip0_23_290)"><g id="Group"><g id="Group_2"><path id="Vector" d="M178.962 0H0V42.5449H178.962V0Z" fill="#159A9B"></path><path id="Vector_2" d="M167.52 23.9789C167.52 26.5037 165.707 30.5076 161.805 30.5076H152.793V12.6621H161.805C165.714 12.6621 167.52 16.666 167.52 19.1908V23.9789ZM164.021 6.14616H146.352V37.0172H164.021C166.118 37.0172 173.967 33.9632 173.967 25.2923V17.871C173.967 9.18735 166.118 6.14616 164.021 6.14616ZM125.311 6.14616H118.87V37.0172H143.555V30.5076H125.311V6.15253V6.14616ZM87.113 37.0172H114.57V30.5076H93.5604V24.387H114.57V17.8774H93.5604V12.6621H114.57V6.15253H87.113V37.0172ZM73.5614 37.0172H80.0088V6.15253H73.5614V37.0172ZM60.7802 17.871H44.3932V6.15253H37.9458V37.0172H44.3932V24.3806H60.7802V37.0172H67.2339V6.15253H60.7802V17.8774V17.871ZM33.677 24.3806C33.677 16.9593 27.2358 17.871 27.2358 17.871H12.9012V12.6557H33.6833V6.15253H12.9012C12.9012 6.15253 6.45375 5.66798 6.45375 12.6621V17.8774C6.45375 17.8774 5.81595 24.387 12.9012 24.387H27.2358V30.5076H6.46006V37.0172H27.2358C34.1948 37.0172 33.677 30.5076 33.677 30.5076V24.387V24.3806Z" fill="white"></path></g><g id="Group_3"><path id="Vector_3" d="M173.38 5.95487V3.17508H174.548C174.839 3.17508 175.053 3.20058 175.186 3.24521C175.318 3.29622 175.432 3.38548 175.508 3.51937C175.584 3.6405 175.622 3.79352 175.622 3.95291C175.622 4.16331 175.571 4.33545 175.445 4.47572C175.325 4.60961 175.142 4.69887 174.895 4.73074C175.015 4.80088 175.116 4.88376 175.192 4.96027C175.274 5.04953 175.375 5.19617 175.514 5.41294L175.849 5.96125H175.186L174.782 5.34918C174.643 5.13879 174.548 4.99852 174.491 4.94114C174.441 4.89014 174.378 4.84551 174.314 4.82638C174.264 4.80725 174.163 4.78813 174.043 4.78813H173.929V5.95487H173.367H173.38ZM173.942 4.3482H174.352C174.618 4.3482 174.782 4.34183 174.851 4.30995C174.914 4.29082 174.965 4.24619 175.009 4.19519C175.047 4.14418 175.06 4.07405 175.06 3.98479C175.06 3.89553 175.034 3.81902 174.984 3.76164C174.94 3.69788 174.87 3.66601 174.775 3.64688C174.731 3.64688 174.599 3.6405 174.371 3.6405H173.942V4.3482Z" fill="white"></path><path id="Vector_4" d="M174.567 7.00686C173.254 7.00686 172.193 5.92937 172.193 4.60961C172.193 3.28985 173.26 2.21236 174.567 2.21236C175.874 2.21236 176.941 3.28985 176.941 4.60961C176.941 5.92937 175.874 7.00686 174.567 7.00686ZM174.567 2.55027C173.449 2.55027 172.527 3.46836 172.527 4.60961C172.527 5.75086 173.443 6.66258 174.567 6.66258C175.691 6.66258 176.6 5.7381 176.6 4.60961C176.6 3.48112 175.691 2.55027 174.567 2.55027Z" fill="white"></path></g></g><g id="Group_4"><path id="Vector_5" d="M6.61794 46.7847H3.81415V51.8215H2.84167V46.7847H0.0442047V45.9049H6.61794V46.7847Z" fill="#159A9B"></path><path id="Vector_6" d="M17.6499 51.8215H16.5196L14.9346 49.5645H11.9729V51.8215H11.0004V45.9049H15.6229C16.2417 45.9049 16.7217 46.0706 17.0753 46.4085C17.4289 46.7465 17.5994 47.1991 17.5994 47.7729C17.5994 48.2766 17.4542 48.6783 17.17 48.9843C16.9048 49.2648 16.5385 49.4497 16.0775 49.5262L17.6499 51.8342V51.8215ZM15.4776 48.6783C16.2291 48.6783 16.6017 48.3722 16.6017 47.7602C16.6017 47.1099 16.1975 46.7783 15.3829 46.7783H11.9666V48.6719H15.4713L15.4776 48.6783Z" fill="#159A9B"></path><path id="Vector_7" d="M29.004 49.9088C29.004 50.5272 28.7072 51.0245 28.1136 51.4071C27.5074 51.8087 26.6991 52.0064 25.6887 52.0064C24.6783 52.0064 23.87 51.8087 23.2512 51.4071C22.6576 51.0245 22.3608 50.5208 22.3608 49.9088V45.9049H23.3333V49.6729C23.3333 50.1383 23.5354 50.489 23.9395 50.7376C24.3373 50.9863 24.9246 51.1074 25.6887 51.1074C26.4528 51.1074 27.0401 50.9863 27.4379 50.7376C27.8357 50.4953 28.0315 50.1383 28.0315 49.6729V45.9049H29.004V49.9088Z" fill="#159A9B"></path><path id="Vector_8" d="M39.3035 47.2884C38.432 46.8421 37.5479 46.6189 36.6449 46.6189C36.045 46.6189 35.5903 46.6891 35.2683 46.8293C34.9526 46.9696 34.7884 47.1672 34.7884 47.4159C34.7884 47.6645 34.9589 47.8686 35.2999 47.9897C35.5398 48.079 35.9377 48.1363 36.4934 48.1682C37.3017 48.2192 37.8384 48.2639 38.0973 48.3021C38.8299 48.3978 39.3729 48.5826 39.7266 48.8504C40.0802 49.1182 40.2507 49.5007 40.2507 49.9853C40.2507 50.6165 39.9728 51.0947 39.4234 51.4389C38.8741 51.7832 38.0847 51.9554 37.0491 51.9554C35.5525 51.9554 34.3905 51.6238 33.557 50.9544L34.0937 50.2403C35.0094 50.8078 36.0008 51.0883 37.0554 51.0883C37.7374 51.0883 38.2741 50.9926 38.653 50.8014C39.013 50.6165 39.1961 50.3615 39.1961 50.0427C39.1961 49.6665 38.9562 49.4179 38.4825 49.2903C38.2363 49.2266 37.5669 49.1565 36.4744 49.0863C35.5083 49.0226 34.8326 48.8887 34.4411 48.691C33.9864 48.4615 33.7591 48.079 33.7591 47.537C33.7591 46.9951 34.018 46.5424 34.5295 46.2173C35.0473 45.8985 35.7735 45.7327 36.7081 45.7327C37.971 45.7327 39.0319 46.026 39.8844 46.6062L39.2908 47.2693L39.3035 47.2884Z" fill="#159A9B"></path><path id="Vector_9" d="M50.7649 46.7847H47.9611V51.8215H46.9886V46.7847H44.1848V45.9049H50.7586V46.7847H50.7649Z" fill="#159A9B"></path><path id="Vector_10" d="M61.2791 51.8215H55.1411V45.9049H61.0517V46.7847H56.1135V48.3021H59.5488V49.182H56.1135V50.9289H61.2791V51.8151V51.8215Z" fill="#159A9B"></path><path id="Vector_11" d="M69.6967 45.8985C70.7197 45.8985 71.528 46.1726 72.1216 46.7209C72.7152 47.2693 73.0183 48.0025 73.0183 48.9269C73.0183 49.7685 72.7026 50.4762 72.0711 51.0373C71.4838 51.5601 70.7513 51.8215 69.8862 51.8215H65.9899V45.9049H69.703L69.6967 45.8985ZM69.9619 50.9353C70.5429 50.9353 71.0228 50.744 71.4017 50.3678C71.7806 49.9853 71.9637 49.5007 71.9637 48.9014C71.9637 48.2702 71.7617 47.7538 71.3575 47.3649C70.9534 46.976 70.4292 46.7847 69.7725 46.7847H66.9561V50.9353H69.9619Z" fill="#159A9B"></path><path id="Vector_12" d="M133.47 45.8985C134.493 45.8985 135.301 46.1726 135.895 46.7209C136.489 47.2693 136.792 48.0025 136.792 48.9269C136.792 49.7685 136.476 50.4762 135.844 51.0373C135.257 51.5601 134.525 51.8215 133.66 51.8215H129.763V45.9049H133.476L133.47 45.8985ZM133.735 50.9353C134.316 50.9353 134.796 50.744 135.175 50.3678C135.554 49.9853 135.737 49.5007 135.737 48.9014C135.737 48.2702 135.535 47.7538 135.131 47.3649C134.727 46.976 134.203 46.7847 133.546 46.7847H130.729V50.9353H133.735Z" fill="#159A9B"></path><path id="Vector_13" d="M91.9817 45.8985L90.062 51.8151H88.8054L87.3403 46.8676L85.8753 51.8151H84.6313L82.6989 45.8985H83.7788L85.2564 50.8524L86.7215 45.8985H87.9529L89.4242 50.8651L90.8956 45.8985H91.9754H91.9817Z" fill="#159A9B"></path><path id="Vector_14" d="M103.588 48.8504C103.588 49.8195 103.191 50.6037 102.407 51.203C101.719 51.7258 100.86 51.9873 99.831 51.9873C98.8017 51.9873 97.9303 51.7258 97.242 51.1903C96.4526 50.591 96.0611 49.8068 96.0611 48.844C96.0611 47.8813 96.4589 47.1162 97.2609 46.5042C97.9619 45.9686 98.8207 45.7008 99.8374 45.7008C100.854 45.7008 101.713 45.9686 102.401 46.5042C103.197 47.1162 103.595 47.8941 103.595 48.844L103.588 48.8504ZM102.578 48.8504C102.578 48.1618 102.288 47.6008 101.707 47.1672C101.208 46.7975 100.583 46.6126 99.8374 46.6126C99.0228 46.6126 98.3534 46.823 97.8419 47.2437C97.3304 47.6645 97.0715 48.2001 97.0715 48.8504C97.0715 49.5007 97.3241 50.0618 97.8229 50.4762C98.3218 50.8843 98.9975 51.0947 99.831 51.0947C100.665 51.0947 101.328 50.8906 101.827 50.4762C102.325 50.0618 102.572 49.5199 102.572 48.8568L102.578 48.8504Z" fill="#159A9B"></path><path id="Vector_15" d="M115.126 51.8215H113.995L112.41 49.5645H109.449V51.8215H108.476V45.9049H113.098C113.717 45.9049 114.197 46.0706 114.551 46.4085C114.905 46.7465 115.075 47.1991 115.075 47.7729C115.075 48.2766 114.93 48.6783 114.646 48.9843C114.38 49.2648 114.014 49.4497 113.553 49.5262L115.126 51.8342V51.8215ZM112.953 48.6783C113.705 48.6783 114.077 48.3722 114.077 47.7602C114.077 47.1099 113.673 46.7783 112.859 46.7783H109.442V48.6719H112.947L112.953 48.6783Z" fill="#159A9B"></path><path id="Vector_16" d="M125.381 51.8215H119.881V45.9049H120.853V50.9416H125.381V51.8279V51.8215Z" fill="#159A9B"></path><path id="Vector_17" d="M150.451 45.8985L148.531 51.8151H147.274L145.809 46.8676L144.344 51.8151H143.1L141.168 45.8985H142.248L143.725 50.8524L145.19 45.8985H146.422L147.893 50.8651L149.365 45.8985H150.444H150.451Z" fill="#159A9B"></path><path id="Vector_18" d="M155.799 51.8215H154.827V45.9049H155.799V51.8215Z" fill="#159A9B"></path><path id="Vector_19" d="M164.71 45.8985C165.733 45.8985 166.541 46.1726 167.134 46.7209C167.728 47.2693 168.031 48.0025 168.031 48.9269C168.031 49.7685 167.715 50.4762 167.084 51.0373C166.497 51.5601 165.764 51.8215 164.899 51.8215H161.003V45.9049H164.716L164.71 45.8985ZM164.975 50.9353C165.556 50.9353 166.036 50.744 166.415 50.3678C166.793 49.9853 166.977 49.5007 166.977 48.9014C166.977 48.2702 166.774 47.7538 166.37 47.3649C165.966 46.976 165.442 46.7847 164.785 46.7847H161.969V50.9353H164.975Z" fill="#159A9B"></path><path id="Vector_20" d="M179 51.8215H172.862V45.9049H178.773V46.7847H173.834V48.3021H177.27V49.182H173.834V50.9289H179V51.8151V51.8215Z" fill="#159A9B"></path></g></g><defs><clipPath id="clip0_23_290"><rect width="179" height="52" fill="white"></rect></clipPath></defs></svg>