<?xml version="1.0" encoding="UTF-8"?>
<svg id="Layer_1" xmlns="http://www.w3.org/2000/svg" xmlns:xlink="http://www.w3.org/1999/xlink" version="1.1" viewBox="0 0 2233.3 637.2">
  <!-- Generator: Adobe Illustrator 29.3.0, SVG Export Plug-In . SVG Version: 2.1.0 Build 146)  -->
  <defs>
    <style>
      .st0 {
        fill: #90d4fa;
      }

      .st1 {
        fill: #85cffa;
      }

      .st2 {
        fill: #62c0f9;
      }

      .st3 {
        fill: url(#linear-gradient2);
      }

      .st4 {
        fill: url(#linear-gradient1);
      }

      .st5 {
        fill: url(#linear-gradient3);
      }

      .st6 {
        fill: #003eb1;
      }

      .st7 {
        fill: #0091f5;
      }

      .st8 {
        fill: #11a2f7;
      }

      .st9 {
        fill: #094abd;
      }

      .st10 {
        fill: url(#linear-gradient);
      }

      .st11 {
        fill: #5fc8ff;
      }

      .st12 {
        fill: #00349c;
      }

      .st13 {
        fill: #0c3daa;
      }

      .st14 {
        fill: #6ec5fa;
      }

      .st15 {
        fill: #1d62ce;
      }

      .st16 {
        fill: #7bcafa;
      }

      .st17 {
        fill: #3cb0f9;
      }

      .st18 {
        fill: #1971e5;
      }
    </style>
    <linearGradient id="linear-gradient" x1="0" y1="1068.5" x2="347.5" y2="1068.5" gradientTransform="translate(0 1392.4) scale(1 -1)" gradientUnits="userSpaceOnUse">
      <stop offset="0" stop-color="#07ddb9"/>
      <stop offset=".8" stop-color="#04b7ef"/>
    </linearGradient>
    <linearGradient id="linear-gradient1" x1="155.8" y1="1340.8" x2="226.6" y2="1150.3" gradientTransform="translate(0 1392.4) scale(1 -1)" gradientUnits="userSpaceOnUse">
      <stop offset=".2" stop-color="#a1e7ff"/>
      <stop offset="1" stop-color="#a1e7ff" stop-opacity="0"/>
    </linearGradient>
    <linearGradient id="linear-gradient2" x1="198" y1="850.7" x2="325.5" y2="1031.4" gradientTransform="translate(0 1392.4) scale(1 -1)" gradientUnits="userSpaceOnUse">
      <stop offset=".3" stop-color="#a1e7ff"/>
      <stop offset="1" stop-color="#a1e7ff" stop-opacity="0"/>
    </linearGradient>
    <linearGradient id="linear-gradient3" x1="624.2" y1="1017.8" x2="359.5" y2="902.7" gradientTransform="translate(0 1392.4) scale(1 -1)" gradientUnits="userSpaceOnUse">
      <stop offset=".3" stop-color="#a1e7ff"/>
      <stop offset="1" stop-color="#a1e7ff" stop-opacity="0"/>
    </linearGradient>
  </defs>
  <g>
    <path class="st12" d="M633.4,356.5c-72.2,75.1-172.3,124.5-285.9,123-8.3,0-16.3-1.3-23.8-3.6-11.9-3.7-22.6-10-31.4-18.3-14.3-13.4-23.7-32-25.2-52.8-.2-1.9-.2-3.9-.2-5.9,0-10.5,4.5-25.4,11.4-42.2-4.3,7.9-46.5,94.3-60.4,214.6,7.6,7.2,17.4,14.5,30.2,21.8,14.5,8.3,32.9,16.5,56.4,24.6,17.8,6.1,38.6,12,62.8,17.8,40.4,5.6,34.2-1.7,46.3-29.7,1.6-3.7,3.4-7.7,5.8-12,4.1-7.7,9.3-14.7,15.5-20.6,6.2-6,13.4-10.9,21.3-14.5,32.5-15,77.2-20.3,119.3-28.3,53.3-10.2,102.4-24.6,117.7-68.2,2.8-8,3.9-16.6,4-25,.6-59.7-26.4-55.2-63.6-80.5Z"/>
    <path class="st9" d="M323.7,475.8c-11.9-3.7-22.6-10-31.4-18.3,10.4,15.3,48.1,84.7,121.3,148.2,1.6-3.7,3.4-7.7,5.8-12,4.1-7.7,9.3-14.7,15.5-20.6,6.2-6,13.4-10.9,21.3-14.5,32.5-15,77.2-20.3,119.3-28.3-135.9,4.8-242.9-49.7-251.7-54.4Z"/>
    <path class="st18" d="M266.8,398.9c0-10.5,4.5-25.4,11.4-42.2-4.3,7.9-46.5,94.3-60.4,214.6,7.6,7.2,17.4,14.5,30.2,21.8,14.5,8.3,32.9,16.5,56.4,24.6-37.1-94.2-36.8-187.1-37.4-212.9-.1-1.9-.2-3.9-.2-5.9Z"/>
    <path class="st15" d="M413.5,605.7c-73.2-63.5-110.9-132.9-121.3-148.2-14.3-13.4-23.7-32-25.2-52.8.5,25.7.2,118.7,37.4,212.9,17.8,6.1,38.6,12,62.8,17.8,40.4,5.6,34.2-1.8,46.3-29.7Z"/>
    <path class="st11" d="M632.1,355.6c-13-9.1-26.8-21.3-39.7-40.1-11-16-22.8-31.4-35.7-45.9-5.2-5.9-10.5-11.6-16.1-17.1-23.4-23.4-55.8-54-93.3-85.9C377.8,107.5,290.7,44.4,210.7,15.8c-21.5-7.7-42.5-12.9-62.4-14.8-11.6-1.1-22.9-1.4-33.6-.1-15.3,1.8-25.4,15.7-24.6,31.1.3,6.6-3.3,12-9.3,17.3-3.9,3.4-8.9,6.8-14.4,10.3-6.5,4.2-13,10-19.2,16.9,116.5,5.5,226.7,47.2,300.3,154.2,0,0,38.6,59.1,62.4,110.4,10.7,22.9,18.4,44.2,18.4,57.9s-5.9,34.5-15.8,47.8c-1.1,1.4-2.2,2.8-3.4,4.2-7.9,9.3-17.8,16.7-29.1,21.7-2,.9-4.1,1.7-6.2,2.4-8.2,2.8-17,4.4-26.2,4.4,113.6,1.5,213.6-47.8,285.9-123-.4-.3-.9-.6-1.3-.9Z"/>
    <path class="st7" d="M379.9,472.6c-2,.9-4.1,1.7-6.2,2.4-8.2,2.8-17,4.4-26.2,4.4,113.6,1.5,213.6-47.8,285.9-123-.4-.3-.9-.6-1.3-.9-13-9.1-26.8-21.3-39.7-40.1-11-16-22.8-31.4-35.7-45.9-31.4,91.2-90.2,168.4-176.7,203.1Z"/>
    <path class="st8" d="M412.4,446.7c-1.1,1.4-2.2,2.8-3.4,4.2-7.9,9.3-17.8,16.7-29.1,21.7,86.6-34.7,145.4-111.9,176.7-203.1-5.2-5.9-10.5-11.6-16.1-17.1-23.4-23.4-55.8-54-93.3-85.9,22.4,108.2,15,216.2-34.9,280.2Z"/>
    <path class="st17" d="M409.9,341c10.7,22.9,18.4,44.2,18.4,57.9s-5.9,34.5-15.8,47.8c49.9-64,57.3-171.9,34.9-280.2C377.8,107.5,290.7,44.4,210.8,15.8c144.1,136.6,193.2,303.8,199.1,325.2Z"/>
    <path class="st10" d="M47.2,76.4C29.1,96.6,13.2,126.5,5.3,155.8c-7.9,29.6-7.8,58.5,6.3,76.4,2.8,3.5,5.6,7.2,8.4,11,6.3,8.5,12.8,17.7,19.4,27.5h0c13.4,20,27.3,42.2,41,65,8.8,14.7,17.6,29.7,26.1,44.4,12.5,21.7,24.3,42.8,34.8,61.8,8.1,14.7,53.1,107.4,76.6,129.5,13.9-120.3,56.1-206.7,60.4-214.6,22.2-53.9,69.3-126.2,69.3-126.2C273.9,123.6,163.8,81.9,47.2,76.4Z"/>
    <path class="st2" d="M347.5,230.6c-24.6,18.4-130.7,82.9-206.3,211.2,8.1,14.7,53.1,107.4,76.6,129.5,13.9-120.3,56.1-206.7,60.4-214.6,22.2-54,69.3-126.2,69.3-126.2Z"/>
    <path class="st0" d="M347.4,230.6c-3-2.5-111-91.4-342.1-74.7,7.9-29.4,23.8-59.3,41.9-79.4,116.5,5.5,226.7,47.2,300.2,154.1Z"/>
    <path class="st4" d="M347.4,230.6c-.8-.7-9.4-7.8-26.1-17.4C249.2,124.3,148.5,88.1,42.1,82.4c1.6-2.1,3.4-4.1,5.1-6.1,116.5,5.5,226.7,47.2,300.2,154.2Z"/>
    <path class="st14" d="M347.5,230.6c-19.9,7.5-146.6,20.8-267.1,105,8.8,14.7,17.6,29.7,26.1,44.4,12.5,21.7,24.3,42.8,34.8,61.8,75.5-128.3,181.7-192.9,206.2-211.2Z"/>
    <path class="st16" d="M20,243.2c6.3,8.5,12.8,17.7,19.4,27.5h0c13.4,20,27.3,42.2,41,65,120.5-84.2,247.2-97.6,267.1-105,0,0-140.4-29.2-327.5,12.6Z"/>
    <path class="st1" d="M347.5,230.6S239.8,138.9,5.3,155.8c-7.9,29.6-7.8,58.5,6.3,76.4,2.8,3.5,5.6,7.2,8.4,11,187-41.9,327.5-12.6,327.5-12.6Z"/>
    <path class="st3" d="M266.8,398.9c0,.9,0,1.9,0,2.8-14.6,37.6-34.4,99.6-43.2,174.8-2.1-1.8-4.1-3.5-5.9-5.2,13.9-120.3,56.1-206.7,60.4-214.6-6.9,16.7-11.4,31.6-11.4,42.2Z"/>
    <path class="st5" d="M633.4,356.5c-72.3,75.1-172.3,124.5-285.9,122.9,9.1,0,18-1.5,26.2-4.4,2.1-.7,4.2-1.5,6.2-2.4,94-9,184.9-57.1,247.8-120.2,1.3.9,3.2,2.3,4.4,3.1.4.4.9.7,1.4,1Z"/>
    <path class="st6" d="M367.3,333.4c-1.1-.4-2.2-.8-3.4-1.2.6.6,1.1,1.3,1.6,1.9,1.4,1.7,2.6,3.4,3.8,5.2,2.8,4.2,5.3,8.7,7.4,13.5,2,4.6,3.6,9.5,4.9,14.7v.5c.1,0-7.3,1.8-7.3,1.8l-3.7.9v-.5c-3.2-12.7-9.1-23.8-17.5-32.8v68.9l-.2.2c-1.7,1.3-3.4,2.6-5.2,4l-.2.2-.3-.2c-1.8-1.4-3.5-2.8-5.2-4l-.2-.2v-68.9c-8.4,9.1-14.2,20.1-17.3,32.8v.5c-.1,0-4-1-4-1l-7.3-1.8v-.5c1.4-5.3,3.1-10.4,5.2-15.1,2.1-4.8,4.6-9.2,7.5-13.5,1.1-1.6,2.3-3.2,3.5-4.7.5-.7,1.1-1.3,1.6-2-1.1.4-2.3.8-3.4,1.2-9,3.5-19,9.1-29.7,16.8l-.9.6c2.7-6,5.9-12.6,9.6-20,4.7-2.7,9.4-5,13.9-6.9,1.1-.5,2.2-.9,3.2-1.3,2.2-.8,4.3-1.5,6.4-2.2-4.7-2.3-9.8-4.3-15.1-5.8,1.3-2.3,2.6-4.7,3.9-7.2.6-1,1.2-2.1,1.7-3.1,7.5,2.3,14.5,5.5,21,9.2,0-4.9,1.1-11.2,2.2-16.8l3.4-15.5c0-.2.3-.2.3,0l3.3,15.5c1.1,5.6,2.2,11.9,2.2,16.8,6.5-3.8,13.5-6.9,21-9.2.6,1,1.1,2.1,1.7,3.1,1.4,2.5,2.6,4.8,3.9,7.2-5.2,1.5-10.3,3.4-15,5.7,2.1.6,4.2,1.3,6.3,2.1,1,.4,2.1.8,3.1,1.2.8.3,1.6.7,2.5,1.1,3.8,1.7,7.7,3.7,11.6,5.9,3.8,7.4,7,14,9.6,20l-.8-.6c-10.7-7.7-20.7-13.3-29.7-16.8Z"/>
    <path class="st6" d="M412.4,398.5c0,3.6-.5,7.1-1.1,10.5-18.1-.6-32.9,3-44.3,10.8-.6.5-1.3.9-2,1.4-2.3,1.7-4.8,3.7-7.4,5.8-.6.4-1.1.9-1.6,1.4,10.5,8,22.2,15.7,33.9,17.5-3.6,3.1-7.4,5.7-11.5,7.9-11.2-4-21.6-11.3-30.9-18.7-9.3,7.3-19.7,14.6-30.9,18.6-4.1-2.2-7.9-4.9-11.5-7.9,11.7-1.9,23.4-9.5,33.8-17.5-.6-.5-1.1-.9-1.7-1.4-2.6-2.2-5.1-4.1-7.4-5.8-.7-.5-1.4-1-2-1.4-11.3-7.8-26.1-11.5-44.2-10.8-.6-3.4-1-7-1.1-10.5,20.7-.9,38,3.4,51.4,12.7,1.6,1.1,3.3,2.4,5.1,3.8,2.3,1.8,4.6,3.7,7.1,5.7,0,0,0,0,0,0,.4.3.8.7,1.3,1,.4-.3.8-.7,1.2-1t0,0c2.5-2,4.8-3.9,7.1-5.7,1.8-1.4,3.5-2.7,5.1-3.8,13.4-9.2,30.7-13.4,51.5-12.6Z"/>
  </g>
  <g>
    <path class="st13" d="M793.6,278.8c5.4,0,10.3-.8,14.5-2.5s7.8-4.1,10.8-7.2,5.2-6.9,6.8-11.2c1.6-4.4,2.3-9.2,2.3-14.6s-1.5-13.3-4.4-19.5c-2.9-6.2-7.8-12.7-14.7-19.5l-4.5-4.3h-20.3l-5,5.4c-13.3,13.8-20,27.3-20,40.6s3,17.8,9,23.8c6.1,6.1,14.5,9.1,25.5,9.1ZM776.7,234c1.8-2.9,4.6-6.4,8.4-10.6l6.2-7h1.3l7.3,7c5,4.6,8.5,8.4,10.4,11.6,1.9,3.2,3,6.2,3,9.1,0,4.2-1.7,7.6-4.9,10.4-3.3,2.7-7.6,4-12.9,4h-3.6c-5.3,0-9.7-1.5-12.9-4.5-3.3-3-4.9-6.6-4.9-10.8,0-3.3.9-6.4,2.7-9.2Z"/>
    <path class="st13" d="M900.9,314.2c2.7,0,4.9-.8,6.6-2.5,1.7-1.7,2.5-4.3,2.5-7.7s-.8-6.2-2.5-7.8c-1.7-1.6-3.9-2.4-6.6-2.4h-2.7c-2.7,0-4.9.8-6.5,2.4-1.6,1.6-2.4,4.2-2.4,7.8s.8,6,2.4,7.7c1.6,1.7,3.8,2.5,6.5,2.5h2.7Z"/>
    <path class="st13" d="M935.2,304c0-3.6-.8-6.2-2.5-7.8-1.7-1.6-3.8-2.4-6.6-2.4h-2.7c-2.7,0-4.9.8-6.5,2.4-1.6,1.6-2.4,4.2-2.4,7.8s.8,6,2.4,7.7c1.6,1.7,3.8,2.5,6.5,2.5h2.7c2.7,0,4.9-.8,6.6-2.5,1.7-1.7,2.5-4.3,2.5-7.7Z"/>
    <path class="st13" d="M1118.1,242.5c0,4.9-1,8.5-3.1,10.8s-5.7,3.4-11,3.4h-12.4c-9.4,0-14.1-4.7-14.1-14.2v-98.6h-16.6v98.6c0,9.5-5,14.2-14.8,14.2h-9.8c-2,0-3.7-.2-5.2-.6-1.4-.4-2.7-1.1-3.8-2-1.1-1-2.2-2.3-3.1-4-1-1.7-1.9-3.9-2.9-6.6l-13.4-36.2h-18l-9.8,6.1c-8.5,5.4-14.8,10.9-19,16.5-4.2,5.6-6.3,11.8-6.3,18.5s.2,4.4.5,6.3c-1.7.8-3.6,1.4-5.8,1.6-2.2.2-5.2.3-8.8.3h-6.8c-9.3,0-13.9-4.7-13.9-14.2v-27.3h-15.5v27.3c0,9.5-4.9,14.2-14.8,14.2h-11.8c-5.3,0-9.2-.9-11.5-2.7-2.3-1.8-3.5-5.2-3.5-10.3v-99.8h-16.6v101.4c0,11.4,2.6,19.5,7.7,24.3,5.1,4.9,13.5,7.3,25.1,7.3h.2l.2-.2v.2c8,0,13.9-1.6,17.7-4.7,3.9-3.1,6.5-8.4,7.9-15.8h1.1c1.6,7.1,4.7,12.2,9.5,15.6,4.8,3.3,11.6,5,20.4,5l.2-.2v.2c5.3,0,9.6-1.3,12.6-3.8,3.1-2.5,5.4-6.5,7.1-11.9h1.1c2.2,5.1,5.9,8.9,11,11.6,5.1,2.7,11.6,4,19.5,4h21.9v-13.1l1.1-.2c2.9,4.9,6.2,8.4,10,10.4,3.8,2,9,3,15.5,3s13.7-1.6,17.4-4.7c3.8-3.1,6.4-8.4,7.8-15.8h1.1c1.6,7.1,4.9,12.2,9.9,15.6,5.1,3.3,12.1,5,20.9,5h10.5c11.1,0,19-2.8,23.7-8.4,4.8-5.6,7.1-14.3,7.1-26.1v-98.6h-16.8v98.6h0ZM985.1,256.7c-5.3,0-9.4-.8-12.3-2.4-2.9-1.6-4.3-4.2-4.3-7.8s1.5-6,4.6-8.7c3-2.7,6.9-5.2,11.7-7.6l10.7-5.4,9.4,25.5c.5,1.2.9,2.3,1.3,3.4.3,1.1.8,2.1,1.3,3.1h-22.3Z"/>
    <path class="st13" d="M1219.3,266c6.2,0,11.2-1.5,15-4.4,3.8-2.9,6.6-7.8,8.4-14.5h.9v2.1c0,9.5,2.3,16.5,7,20.9,4.7,4.5,12.4,6.8,23.3,6.8h8c12.6,0,21.9-2.7,28-8.2s9.1-13.8,9.1-25.1-.7-13.1-2.1-22.6l-2.3-15.6-15.5,2.5,2.9,15.6c.8,5.2,1.4,9.3,1.7,12.4.3,3.1.4,5.7.4,7.7,0,4.9-1.7,8.3-5,10.2-3.3,1.8-9,2.8-17.1,2.8h-9.6c-4.6,0-8-.8-10.2-2.4s-3.2-4.6-3.2-8.9v-61.9h-16.2v9.5l-18.9,10.1c-5.1,2.8-9.5,5.5-13.3,8.2-3.7,2.7-6.9,5.5-9.4,8.6-2.5,3-4.3,6.2-5.5,9.6-1.2,3.4-1.8,7.1-1.8,11.2,0,8,2.2,14.3,6.6,18.7,4.5,4.5,10.8,6.7,19,6.7ZM1212.8,226.3c2.9-2.6,7.5-5.5,13.9-8.9l16-8.3v24.3c0,4.6-1.5,7.7-4.4,9.5-2.9,1.8-7.9,2.7-15.1,2.7s-9.3-.8-11.5-2.3c-2.2-1.6-3.3-4.1-3.3-7.5,0-3.8,1.5-7,4.3-9.5Z"/>
    <path class="st13" d="M1249.8,168.9h2.7c2.7,0,4.9-.8,6.6-2.5,1.7-1.7,2.5-4.2,2.5-7.7s-.8-6.2-2.5-7.8c-1.7-1.6-3.8-2.4-6.6-2.4h-2.7c-2.7,0-4.9.8-6.5,2.4-1.6,1.6-2.4,4.2-2.4,7.8s.8,6.1,2.4,7.7c1.7,1.7,3.8,2.5,6.5,2.5Z"/>
    <path class="st13" d="M1224.7,168.9h2.7c2.7,0,4.9-.8,6.6-2.5,1.7-1.7,2.5-4.2,2.5-7.7s-.8-6.2-2.5-7.8c-1.7-1.6-3.9-2.4-6.6-2.4h-2.7c-2.7,0-4.9.8-6.5,2.4-1.6,1.6-2.4,4.2-2.4,7.8s.8,6.1,2.4,7.7c1.6,1.7,3.8,2.5,6.5,2.5Z"/>
    <path class="st13" d="M1292.8,293.7h-2.7c-2.7,0-4.9.8-6.5,2.4-1.6,1.6-2.4,4.2-2.4,7.8s.8,6,2.4,7.7c1.6,1.7,3.8,2.5,6.5,2.5h2.7c2.7,0,4.9-.8,6.6-2.5,1.7-1.7,2.5-4.3,2.5-7.7s-.8-6.2-2.5-7.8c-1.7-1.6-3.9-2.4-6.6-2.4Z"/>
    <path class="st13" d="M1315.3,314.2h2.7c2.7,0,4.9-.8,6.6-2.5,1.7-1.7,2.5-4.3,2.5-7.7s-.8-6.2-2.5-7.8c-1.7-1.6-3.8-2.4-6.6-2.4h-2.7c-2.7,0-4.9.8-6.5,2.4-1.6,1.6-2.4,4.2-2.4,7.8s.8,6,2.4,7.7c1.6,1.7,3.7,2.5,6.5,2.5Z"/>
    <path class="st13" d="M1350.7,277h23.2c10.2,0,18.1-2.8,23.7-8.4,5.6-5.6,8.4-13.3,8.4-23.3s-.4-7.6-1.2-11.1c-.8-3.4-2-6.9-3.6-10.3-1.7-3.4-3.8-7-6.5-10.6-2.7-3.6-6-7.6-9.9-11.8l-16.4-18-14.4,14.7,18.2,18.9c6.7,6.5,11.3,11.8,14.1,15.8,2.7,4.1,4.1,7.9,4.1,11.5s-1,6.4-3.1,8.6c-2.1,2.3-5.9,3.4-11.5,3.4h-28.5v-12.8h-15.8v13.1c0,6.9,1.7,11.9,5.2,15.1,3.5,3.2,8.2,4.8,14.3,4.8Z"/>
    <path class="st13" d="M1728.7,276.8v.2h10.5c11,0,19-2.8,23.7-8.4,4.8-5.6,7.2-14.3,7.2-26.1v-98.6h-16.8v98.6c0,4.9-1,8.5-3.1,10.8-2.1,2.3-5.7,3.4-11,3.4h-13c-9.3,0-13.9-4.7-13.9-14.2v-20.1h-15.5v20.2c0,5.9-.9,10.1-2.6,12.5-1.8,2.5-4.5,3.7-8.3,3.7h-3.2c-4,0-6.9-1.3-8.5-3.7-1.6-2.5-2.4-6.7-2.4-12.6v-13h-15.5v12.9c0,6.1-1.3,10.4-3.7,12.8-2.5,2.4-6.4,3.6-11.8,3.6s-6.8-.4-10.1-1.4c-3.3-.9-6.7-2.4-10.3-4.4l-1.3-.7,8-16-13.4-6.9-7.3,14.9c-1.2,2.4-2.4,4.4-3.5,5.9-1.2,1.6-2.5,2.8-3.9,3.8-1.4,1-3.1,1.6-5,2-1.9.3-4.1.5-6.6.5h-30.1l-.2-.3c3.5-2.9,6.6-5.4,9-7.6,2.4-2.2,4.4-4.4,6-6.6,1.6-2.1,2.7-4.4,3.4-6.9.7-2.4,1.1-5.2,1.1-8.5,0-9-3.1-15.8-9.2-20.5-6.1-4.7-15.3-7-27.6-7s-12.2.7-18.5,2.2c-6.3,1.5-12.2,3.6-17.6,6.4v20.8l21.8,27.3-.2.7h-37.2c-.2-16.2-3.3-28.8-9.2-37.8-5.9-9-14-13.5-24.5-13.5s-9.6,1.1-13.7,3.3c-4.2,2.1-7.8,5.1-10.8,8.7s-5.4,8-7.1,13c-1.7,5.1-2.6,10.4-2.6,16.2,0,9.7,2.6,17.2,7.9,22.5,5.3,5.3,12.7,7.9,22.4,7.9h21.4c-2.2,7.2-6.9,12.8-13.9,16.8-7,4-16.8,6-29.3,6h-10.4v20.3h11c15.9,0,28.6-3.7,38.1-11.2,9.4-7.5,15.6-18.1,18.6-31.9h24.4c5.3,0,10.6-.7,15.8-2,5.2-1.4,10-3.6,14.5-6.8,4.5,3.1,9.5,5.3,15,6.8,5.4,1.4,10.9,2,16.4,2h7.5c7,0,12.8-.6,17.3-1.8,4.5-1.2,8.6-3.6,12.1-7.4l4.8,2.9c5,3,9.3,5.2,12.9,6.5,3.6,1.3,7.1,2,10.6,2,11.2,0,17.8-7,19.8-21h1.1c2.2,14,9.4,21,21.6,21s10.1-1.6,13.3-4.9,5.1-8.7,5.8-16.2h.9c1.7,6.5,4.8,11.2,9.4,14.3,4.6,3.1,11,4.6,19.3,4.6h.2ZM1473.2,256.7h-22.1c-5.3,0-9.4-1-12.1-3-2.7-2-4.1-5.2-4.1-9.7s1.6-9.8,4.8-13.2,7.5-5.1,13-5.1,11,2.5,14.8,7.5c3.8,5,5.7,11.7,5.7,20v3.5ZM1547.9,248l-5.7,4.9-24.4-29.5v-.7c7.4-2,14.7-3.1,21.9-3.1,14.9,0,22.3,3.6,22.3,10.8s-1.2,5.8-3.5,8.1c-2.4,2.3-5.9,5.5-10.5,9.5Z"/>
    <path class="st13" d="M1811.2,143.9h-16.6v133.1h16.6v-133.1Z"/>
    <path class="st13" d="M1926.2,168.9h2.7c2.7,0,4.9-.8,6.6-2.5,1.7-1.7,2.5-4.2,2.5-7.7s-.8-6.2-2.5-7.8c-1.7-1.6-3.8-2.4-6.6-2.4h-2.7c-2.7,0-4.9.8-6.5,2.4-1.6,1.6-2.4,4.2-2.4,7.8s.8,6.1,2.4,7.7c1.6,1.7,3.8,2.5,6.5,2.5Z"/>
    <path class="st13" d="M1901,168.9h2.7c2.7,0,4.9-.8,6.6-2.5,1.7-1.7,2.5-4.2,2.5-7.7s-.8-6.2-2.5-7.8c-1.6-1.6-3.9-2.4-6.6-2.4h-2.7c-2.7,0-4.9.8-6.5,2.4-1.6,1.6-2.4,4.2-2.4,7.8s.8,6.1,2.4,7.7c1.6,1.7,3.8,2.5,6.5,2.5Z"/>
    <path class="st13" d="M2002.3,187.3h-12.3c-8.3,0-12.5-2.4-12.5-7.2s.6-2.9,2-3.9c1.3-1,3-1.5,5.1-1.5,3.2,0,6.2,1.4,8.9,4.1l7.5-9.7c-1.9-2.4-4.3-4.3-7.3-5.7-3-1.4-6-2.1-9.1-2.1-5.1,0-9.3,1.6-12.6,4.8-3.3,3.2-5,7.1-5,12s1.1,6.9,3.4,9.3l-.2.9h-7v12.4h39v-13.4h0Z"/>
    <path class="st13" d="M2025.8,314.2h2.7c2.7,0,4.9-.8,6.6-2.5,1.7-1.7,2.5-4.3,2.5-7.7s-.8-6.2-2.5-7.8c-1.6-1.6-3.9-2.4-6.6-2.4h-2.7c-2.7,0-4.9.8-6.5,2.4-1.6,1.6-2.4,4.2-2.4,7.8s.8,6,2.4,7.7c1.7,1.7,3.8,2.5,6.5,2.5Z"/>
    <path class="st13" d="M2053.6,293.7h-2.7c-2.7,0-4.9.8-6.5,2.4-1.6,1.6-2.4,4.2-2.4,7.8s.8,6,2.4,7.7c1.6,1.7,3.8,2.5,6.5,2.5h2.7c2.7,0,4.9-.8,6.6-2.5,1.7-1.7,2.5-4.3,2.5-7.7s-.8-6.2-2.5-7.8c-1.7-1.6-3.9-2.4-6.6-2.4Z"/>
    <path class="st13" d="M2137.2,277h24.1c11.1,0,18.9-2.8,23.7-8.4,4.8-5.6,7.2-14.3,7.2-26.1v-98.6h-16.8v98.6c0,4.9-1,8.5-3.1,10.8s-5.7,3.4-11,3.4h-20.5c-4.2,0-7.4,1-9.6,3-2.2,2-4.4,5.6-6.4,10.9l-14.6,36.3c-2.2-3.6-4.2-6.8-5.8-9.5-1.6-2.8-2.9-5.3-3.8-7.6-1-2.3-1.7-4.5-2.1-6.4-.5-1.9-.7-3.9-.7-5.9s.1-3.8.4-5.7c.3-1.9.8-3.9,1.5-6,.7-2.1,1.6-4.4,2.7-6.9,1.1-2.5,2.4-5.3,3.9-8.5l6.8-13.9-13.2-6.9-7.3,14.9c-2.2,4.6-4.8,7.7-7.6,9.5-2.8,1.8-6.6,2.7-11.5,2.7h-11.9c-9.3,0-13.9-4.7-13.9-14.2v-27.3h-15.5v27.3c0,9.5-4.9,14.2-14.8,14.2h-12.6c-9.3,0-13.9-4.7-13.9-14.2v-27.3h-15.5v27.3c0,9.5-4.9,14.2-14.8,14.2h-11.8c-4.6,0-8-.8-10.2-2.4s-3.2-4.6-3.2-8.9v-61.9h-16.2v9.5l-18.9,10.1c-5.1,2.8-9.5,5.5-13.3,8.2s-6.8,5.5-9.3,8.6c-2.5,3-4.3,6.2-5.5,9.6-1.2,3.4-1.8,7.1-1.8,11.2,0,8,2.2,14.3,6.6,18.7,4.4,4.4,10.7,6.7,18.9,6.7s11.2-1.5,15-4.4c3.8-2.9,6.6-7.8,8.4-14.5h.9v2.1c0,9.5,2.3,16.5,7,20.9,4.7,4.5,12.5,6.8,23.3,6.8s13.8-1.6,17.7-4.7c3.8-3.1,6.5-8.4,7.9-15.8h1.1c1.6,7.1,4.7,12.2,9.5,15.6,4.8,3.3,11.6,5,20.4,5l.2-.2v.2c8,0,13.8-1.6,17.7-4.7,3.8-3.1,6.5-8.4,7.9-15.8h1.1c1.6,7.1,4.7,12.2,9.5,15.6,4.8,3.3,11.6,5,20.4,5l.2-.2v.2c7,0,12.2-.5,15.8-1.6,3.5-1.1,6.5-2.8,8.8-5.1l.9.5c-1.9,2.8-3.5,5.9-4.9,9.3-1.4,3.5-2,7.1-2,11s.2,4.2.7,6.2c.5,2,1.4,4.2,2.6,6.8,1.3,2.5,2.9,5.5,5,8.9,2.1,3.4,4.7,7.6,7.9,12.5h19.6l18.7-48.5ZM1919,233.5c0,4.6-1.5,7.7-4.4,9.5-2.9,1.8-7.9,2.7-15.1,2.7s-9.3-.8-11.5-2.3c-2.2-1.6-3.3-4.1-3.3-7.5s1.4-6.9,4.3-9.4c2.9-2.6,7.5-5.5,13.9-8.9l16-8.3v24.2h0Z"/>
    <path class="st13" d="M2233.3,143.9h-16.6v133.1h16.6v-133.1Z"/>
    <path class="st13" d="M804.6,404l-9.4-1.8c-4.9-.9-8.5-2.2-10.7-4-2.2-1.8-3.3-4.7-3.3-8.5s1.4-6.7,4.1-8.8c2.7-2,6.9-3.1,12.3-3.1s9.9,1,13.4,2.9c3.5,1.9,6.6,4.4,9.1,7.5l13-12.4c-4-5-8.9-8.7-14.6-11.2-5.7-2.5-12.3-3.8-19.9-3.8s-10.7.7-15.2,2.1c-4.5,1.4-8.3,3.4-11.5,6.1-3.2,2.6-5.6,5.8-7.3,9.5-1.7,3.7-2.5,7.8-2.5,12.4,0,16.5,10.1,26.4,30.2,29.6l9.5,1.4c5.3,1,8.9,2.5,10.8,4.6,1.9,2.1,2.9,4.9,2.9,8.2s-1.5,7.8-4.5,10.4c-3,2.6-7.4,3.8-13.3,3.8s-9.9-1.1-14.2-3.2c-4.3-2.1-8.2-5.2-11.6-9.2l-12.8,12.5c4.3,5.1,9.5,9.1,15.5,12.2,6,3.1,13.4,4.7,22,4.7s11.4-.8,16.1-2.3c4.7-1.5,8.6-3.8,11.9-6.6,3.2-2.9,5.7-6.3,7.4-10.2,1.7-3.9,2.5-8.4,2.5-13.2,0-8.4-2.4-15-7.3-19.7-4.9-4.9-12.4-8.1-22.6-10Z"/>
    <path class="st13" d="M910.5,413.5c0-8.7-2.6-15.4-7.9-20.1-5.3-4.7-13-7-23.2-7s-13.7,1.4-18.3,4c-4.6,2.7-8.3,6.2-11.1,10.6l11,10c1.8-2.6,4.1-4.9,6.7-6.8,2.6-1.9,6.1-2.8,10.4-2.8s8.5,1.2,10.7,3.5c2.2,2.3,3.3,5.6,3.3,9.9v5.5h-12.8c-10.3,0-18.2,1.9-23.8,5.7-5.6,3.8-8.4,9.7-8.4,17.5s2.1,12.2,6.2,16.3c4.1,4.1,10.1,6.1,17.7,6.1s10.4-1.2,14.3-3.7c3.8-2.5,6.4-6.2,7.6-11.1h.9c.6,4,2,7.1,4.4,9.5,2.4,2.4,5.5,3.5,9.6,3.5h10.3v-15h-7.5v-35.8h0ZM892.1,441.6c0,3.6-1.5,6.3-4.3,8.1-2.9,1.9-6.4,2.8-10.5,2.8s-6.5-.7-8.5-2.2c-2-1.5-3-3.8-3-6.8v-2.5c0-6.2,4.8-9.2,14.4-9.2h11.9v9.9Z"/>
    <path class="st13" d="M978.1,438.4c0,2-.4,3.8-1.3,5.3-.9,1.5-2,2.8-3.3,3.8-1.4,1-2.9,1.8-4.7,2.2-1.8.5-3.6.7-5.4.7-4.4,0-7.6-1.4-9.7-4.1-2-2.8-3-6.8-3-12v-46.2h-18.5v48.1c0,9.5,2.1,16.9,6.2,22,4.1,5.2,10.1,7.7,17.9,7.7s5.8-.4,8.2-1.2c2.3-.8,4.4-1.8,6.1-3.2,1.7-1.4,3.1-2.9,4.2-4.6,1.1-1.7,2-3.5,2.7-5.4h.7v12.7h18.5v-76h-18.5v50.2h0Z"/>
    <path class="st13" d="M1064.7,400.7h-.7c-1.4-4.4-3.9-7.8-7.6-10.4-3.7-2.6-8.1-3.8-13.1-3.8-9.5,0-16.8,3.4-21.9,10.2-5.1,6.8-7.6,16.6-7.6,29.3s2.5,22.7,7.6,29.6c5.1,6.9,12.3,10.4,21.9,10.4s9.4-1.3,13.1-3.9c3.7-2.6,6.3-6.1,7.6-10.5h.7v12.7h18.5v-107.8h-18.5v44.2ZM1064.7,438.1c0,4-1.5,7-4.5,9.2-3,2.1-6.7,3.2-11.1,3.2s-8.7-1.6-11.6-4.8c-2.9-3.2-4.4-7.5-4.4-13v-13.1c0-5.4,1.5-9.8,4.4-13,2.9-3.3,6.8-4.9,11.6-4.9s8.1,1.1,11.1,3.3c3,2.2,4.5,5.2,4.5,8.9v24.2Z"/>
    <path class="st13" d="M1123,388.2h-18.5v76h18.5v-76Z"/>
    <path class="st13" d="M1113.8,355.6c-3.8,0-6.6.9-8.3,2.6-1.7,1.8-2.5,4-2.5,6.7v2.9c0,2.7.8,5,2.5,6.7,1.7,1.8,4.5,2.6,8.3,2.6s6.5-.9,8.2-2.6c1.8-1.8,2.6-4,2.6-6.7v-2.9c0-2.7-.9-5-2.6-6.7-1.7-1.8-4.5-2.6-8.2-2.6Z"/>
    <path class="st13" d="M1272.4,411.4l-6.4,31.2h-.4l-7.1-31.2-11.6-48.8h-21l-11.6,48.8-7.2,31.2h-.4l-6.2-31.2-10-48.8h-19.1l23.4,101.6h21.7l12.8-53.7,6.5-26.8h.3l6.2,26.8,12.9,53.7h21.5l24.1-101.6h-18.2l-10.3,48.8Z"/>
    <path class="st13" d="M1370.2,413.5c0-8.7-2.7-15.4-7.9-20.1-5.3-4.7-13-7-23.2-7s-13.7,1.4-18.3,4c-4.6,2.7-8.3,6.2-11.1,10.6l11,10c1.8-2.6,4.1-4.9,6.7-6.8,2.6-1.9,6.1-2.8,10.4-2.8s8.5,1.2,10.7,3.5c2.2,2.3,3.3,5.6,3.3,9.9v5.5h-12.8c-10.3,0-18.2,1.9-23.8,5.7-5.6,3.8-8.4,9.7-8.4,17.5s2.1,12.2,6.2,16.3c4.1,4.1,10.1,6.1,17.7,6.1s10.4-1.2,14.3-3.7c3.8-2.5,6.4-6.2,7.6-11.1h.9c.6,4,2,7.1,4.4,9.5,2.4,2.4,5.5,3.5,9.6,3.5h10.3v-15h-7.5v-35.8h0ZM1351.7,441.6c0,3.6-1.5,6.3-4.3,8.1-2.9,1.9-6.4,2.8-10.5,2.8s-6.5-.7-8.5-2.2c-2-1.5-3-3.8-3-6.8v-2.5c0-6.2,4.8-9.2,14.4-9.2h11.9v9.9Z"/>
    <path class="st13" d="M1414.6,367.4h-16.6v13c0,2.6-.5,4.6-1.5,5.9-1,1.3-2.9,2-5.7,2h-5.8v15h11.1v41.7c0,6.2,1.7,11,5,14.3,3.3,3.3,8.2,5,14.5,5h13.3v-15h-14.3v-46h15.5v-15h-15.5v-20.8Z"/>
    <path class="st13" d="M1501.4,397.8c-2.8-3.5-6.4-6.3-10.7-8.3s-9.4-3.1-15.3-3.1-10.4,1-14.7,2.8c-4.3,1.9-8,4.6-11,8-3,3.5-5.2,7.6-6.9,12.4-1.6,4.9-2.4,10.3-2.4,16.3s.8,11.6,2.5,16.5c1.7,4.9,4,9.1,7,12.5,3,3.5,6.8,6.1,11.1,8,4.4,1.9,9.4,2.8,14.9,2.8s13.2-1.3,18.6-3.8c5.3-2.5,9.5-5.9,12.6-10.3l-10-11.2c-2.3,3-4.9,5.4-7.9,7.4-2.9,1.9-6.7,2.9-11.3,2.9s-10.6-1.7-13.7-5c-3.1-3.3-4.6-7.7-4.6-13.2v-1.9h50.1v-6.1c0-5.2-.7-10.2-2.1-14.8-1.4-4.6-3.5-8.6-6.3-12.1ZM1490.6,419.4h-30.9v-1.2c0-5.2,1.5-9.5,4.3-12.8,2.9-3.3,6.8-5,11.7-5s8.5,1.6,11,4.9c2.5,3.3,3.8,7.5,3.8,12.7v1.4Z"/>
    <path class="st13" d="M1557.3,389.5c-2.3.9-4.2,2-5.8,3.5-1.7,1.5-3,3.1-4,5-1,1.9-1.7,3.8-2.2,5.9h-.7v-15.7h-18.5v76h18.5v-46.6c0-4.2,1.6-7.2,4.8-9s7.9-2.8,14.1-2.8h5.8v-17.6h-4c-3,.1-5.6.5-7.9,1.4Z"/>
    <path class="st13" d="M1643,362.6l-33.8,101.6h19.3l7.9-25.9h35.8l8.1,25.9h19.8l-33.5-101.6h-23.7ZM1641.1,421.9l12.8-41.8h.7l13,41.8h-26.5Z"/>
    <path class="st13" d="M1758.9,438.4c0,2-.4,3.8-1.3,5.3-.9,1.5-2,2.8-3.3,3.8-1.4,1-2.9,1.8-4.7,2.2-1.8.5-3.6.7-5.4.7-4.4,0-7.6-1.4-9.7-4.1-2-2.8-3-6.8-3-12v-46.2h-18.5v48.1c0,9.5,2.1,16.9,6.2,22,4.1,5.2,10.1,7.7,17.9,7.7s5.8-.4,8.2-1.2c2.3-.8,4.4-1.8,6.1-3.2,1.7-1.4,3.1-2.9,4.2-4.6,1.1-1.7,2-3.5,2.7-5.4h.7v12.7h18.5v-76h-18.5v50.2h0Z"/>
    <path class="st13" d="M1821.3,367.4h-16.6v13c0,2.6-.5,4.6-1.5,5.9-1,1.3-2.9,2-5.7,2h-5.8v15h11.1v41.7c0,6.2,1.7,11,5,14.3,3.3,3.3,8.2,5,14.5,5h13.3v-15h-14.3v-46h15.5v-15h-15.5v-20.8h0Z"/>
    <path class="st13" d="M1893.1,386.4c-5.9,0-10.4,1.4-13.8,4.2-3.3,2.8-5.7,6.2-7.3,10.2h-.7v-44.4h-18.5v107.8h18.5v-50.3c0-2,.4-3.8,1.3-5.3.9-1.5,2-2.8,3.4-3.8,1.4-1,3-1.8,4.8-2.3,1.8-.5,3.7-.8,5.5-.8,4.4,0,7.6,1.4,9.5,4.1,1.9,2.7,2.9,6.8,2.9,12.2v46.2h18.5v-48.1c0-9.5-2.1-16.9-6.2-22-4.1-5.2-10.1-7.7-17.8-7.7Z"/>
    <path class="st13" d="M1993.2,397.2c-3-3.5-6.7-6.1-11-7.9-4.3-1.8-9.2-2.8-14.6-2.8s-10.2.9-14.5,2.8c-4.3,1.8-7.9,4.5-11,7.9-3,3.4-5.4,7.6-7,12.4-1.7,4.9-2.5,10.3-2.5,16.5s.8,11.6,2.5,16.5c1.6,4.9,4,9.1,7,12.6,3,3.5,6.7,6.2,11,8,4.3,1.8,9.1,2.8,14.5,2.8s10.2-.9,14.6-2.8c4.3-1.8,8-4.5,11-8,3-3.5,5.3-7.7,7-12.6,1.6-4.9,2.4-10.4,2.4-16.5s-.8-11.6-2.4-16.5c-1.7-4.9-4-9-7-12.4ZM1983.3,433.2c0,5.8-1.4,10.2-4.2,13.3-2.8,3-6.7,4.5-11.6,4.5s-8.6-1.5-11.4-4.5c-2.8-3-4.2-7.4-4.2-13.3v-14.1c0-5.7,1.4-10.1,4.2-13.1,2.8-3,6.6-4.5,11.4-4.5s8.8,1.5,11.6,4.5c2.8,3,4.2,7.4,4.2,13.1v14.1Z"/>
    <path class="st13" d="M2050.2,389.5c-2.3.9-4.2,2-5.8,3.5-1.7,1.5-3,3.1-4,5-1,1.9-1.8,3.8-2.2,5.9h-.7v-15.7h-18.5v76h18.5v-46.6c0-4.2,1.6-7.2,4.8-9,3.2-1.8,7.9-2.8,14.1-2.8h5.8v-17.6h-4c-3,.1-5.6.5-7.9,1.4Z"/>
    <path class="st13" d="M2084.9,355.6c-3.8,0-6.6.9-8.3,2.6-1.7,1.8-2.5,4-2.5,6.7v2.9c0,2.7.8,5,2.5,6.7,1.7,1.8,4.5,2.6,8.3,2.6s6.5-.9,8.2-2.6c1.8-1.8,2.6-4,2.6-6.7v-2.9c0-2.7-.9-5-2.6-6.7-1.7-1.8-4.5-2.6-8.2-2.6Z"/>
    <path class="st13" d="M2094.1,388.2h-18.5v76h18.5v-76Z"/>
    <path class="st13" d="M2138,367.4h-16.6v13c0,2.6-.5,4.6-1.5,5.9-1,1.3-2.9,2-5.7,2h-5.8v15h11.1v41.7c0,6.2,1.7,11,5,14.3,3.3,3.3,8.2,5,14.5,5h13.3v-15h-14.3v-46h15.4v-15h-15.4v-20.8Z"/>
    <path class="st13" d="M2202.6,428.3l-5.2,19.2h-.9l-4.9-19.2-13.1-40.1h-18.3l27,79.5-3.4,10.6h-13.6v15h11.1c3.1,0,5.8-.3,8.1-.9,2.3-.6,4.3-1.5,5.9-2.8,1.7-1.3,3.1-2.9,4.3-4.9,1.2-2,2.3-4.3,3.2-7l30.3-89.6h-17.3l-13.2,40.1Z"/>
  </g>
</svg>